<?xml version="1.0" encoding="UTF-8"?>
<svg version="1.1" xmlns="http://www.w3.org/2000/svg" width="371" height="93">
<path d="M0 0 C122.43 0 244.86 0 371 0 C371 30.69 371 61.38 371 93 C248.57 93 126.14 93 0 93 C0 62.31 0 31.62 0 0 Z " fill="#F5F6F6" transform="translate(0,0)"/>
<path d="M0 0 C2.74643564 0.10599597 5.48684976 0.14332986 8.23510742 0.16723633 C10.00146033 0.19902685 11.76774832 0.23470941 13.53393555 0.2746582 C14.34361282 0.29054489 15.1532901 0.30643158 15.98750305 0.32279968 C25.27819331 0.70417221 33.97481402 3.62279091 40.9519043 9.91918945 C46.77600753 17.64803085 48.76077286 24.3283194 47.9519043 33.91918945 C46.13292622 41.5160979 42.56564133 47.14094898 35.8894043 51.29418945 C31.41344276 53.91918945 31.41344276 53.91918945 27.9519043 53.91918945 C28.51780273 54.60625977 29.08370117 55.29333008 29.66674805 56.0012207 C30.40022461 56.90227539 31.13370117 57.80333008 31.8894043 58.73168945 C32.98575195 60.07166992 32.98575195 60.07166992 34.10424805 61.4387207 C35.9519043 63.91918945 35.9519043 63.91918945 36.9519043 66.91918945 C37.6119043 66.91918945 38.2719043 66.91918945 38.9519043 66.91918945 C40.4675293 68.4230957 40.4675293 68.4230957 42.2019043 70.48168945 C43.12422852 71.57030273 43.12422852 71.57030273 44.06518555 72.6809082 C44.99911133 73.78885742 44.99911133 73.78885742 45.9519043 74.91918945 C46.54358398 75.58563477 47.13526367 76.25208008 47.74487305 76.9387207 C48.28756836 77.55102539 48.83026367 78.16333008 49.3894043 78.79418945 C49.88311523 79.34848633 50.37682617 79.9027832 50.88549805 80.47387695 C51.9519043 81.91918945 51.9519043 81.91918945 51.9519043 83.91918945 C48.82707868 84.00606442 45.70256184 84.05953514 42.5769043 84.10668945 C41.68745117 84.13182617 40.79799805 84.15696289 39.8815918 84.18286133 C38.60541992 84.19736328 38.60541992 84.19736328 37.3034668 84.2121582 C36.51794434 84.22786865 35.73242188 84.2435791 34.9230957 84.25976562 C34.27260254 84.14737549 33.62210937 84.03498535 32.9519043 83.91918945 C32.2919043 82.92918945 31.6319043 81.93918945 30.9519043 80.91918945 C26.59615794 81.40316127 24.8605784 82.70961803 21.9519043 85.91918945 C19.38056971 87.20485675 17.55473329 87.03928724 14.67602539 87.03271484 C13.02453995 87.03260155 13.02453995 87.03260155 11.33969116 87.03248596 C10.14695587 87.02732468 8.95422058 87.02216339 7.7253418 87.0168457 C6.50738922 87.01543076 5.28943665 87.01401581 4.03457642 87.01255798 C0.1319944 87.00694584 -3.77053093 86.99439124 -7.6730957 86.98168945 C-10.31371988 86.97667602 -12.95434495 86.97211284 -15.5949707 86.96801758 C-22.07936515 86.95697246 -28.56372638 86.94022247 -35.0480957 86.91918945 C-35.09891435 79.4993788 -35.1338792 72.07961324 -35.15795898 64.65966797 C-35.16800032 62.13686445 -35.18163603 59.61407252 -35.19897461 57.09130859 C-35.22330468 53.45968764 -35.23459773 49.82822095 -35.2434082 46.1965332 C-35.25373077 45.0733519 -35.26405334 43.95017059 -35.27468872 42.79295349 C-35.27549975 37.0989131 -34.9895173 32.29000801 -33.0480957 26.91918945 C-32.3880957 26.91918945 -31.7280957 26.91918945 -31.0480957 26.91918945 C-31.0480957 25.92918945 -31.0480957 24.93918945 -31.0480957 23.91918945 C-29.6249707 23.48606445 -29.6249707 23.48606445 -28.1730957 23.04418945 C-24.93300879 21.3183816 -24.93300879 21.3183816 -24.4152832 18.8449707 C-24.29411133 18.02383789 -24.17293945 17.20270508 -24.0480957 16.35668945 C-21.52608374 0.66902218 -14.39710158 -0.55772902 0 0 Z " fill="#F3F5F6" transform="translate(35.048095703125,6.080810546875)"/>
<path d="M0 0 C2.74643564 0.10599597 5.48684976 0.14332986 8.23510742 0.16723633 C10.00146033 0.19902685 11.76774832 0.23470941 13.53393555 0.2746582 C14.34361282 0.29054489 15.1532901 0.30643158 15.98750305 0.32279968 C25.27819331 0.70417221 33.97481402 3.62279091 40.9519043 9.91918945 C46.77600753 17.64803085 48.76077286 24.3283194 47.9519043 33.91918945 C46.13292622 41.5160979 42.56564133 47.14094898 35.8894043 51.29418945 C31.41344276 53.91918945 31.41344276 53.91918945 27.9519043 53.91918945 C28.51780273 54.60625977 29.08370117 55.29333008 29.66674805 56.0012207 C30.40022461 56.90227539 31.13370117 57.80333008 31.8894043 58.73168945 C32.62030273 59.62500977 33.35120117 60.51833008 34.10424805 61.4387207 C35.9519043 63.91918945 35.9519043 63.91918945 36.9519043 66.91918945 C37.6119043 66.91918945 38.2719043 66.91918945 38.9519043 66.91918945 C40.4675293 68.4230957 40.4675293 68.4230957 42.2019043 70.48168945 C43.12422852 71.57030273 43.12422852 71.57030273 44.06518555 72.6809082 C44.99911133 73.78885742 44.99911133 73.78885742 45.9519043 74.91918945 C46.54358398 75.58563477 47.13526367 76.25208008 47.74487305 76.9387207 C48.28756836 77.55102539 48.83026367 78.16333008 49.3894043 78.79418945 C49.88311523 79.34848633 50.37682617 79.9027832 50.88549805 80.47387695 C51.9519043 81.91918945 51.9519043 81.91918945 51.9519043 83.91918945 C35.22933214 85.4363583 35.22933214 85.4363583 30.2956543 82.1496582 C28.28421399 79.51177357 26.64552106 76.77102155 24.9519043 73.91918945 C23.17743898 71.6408721 21.28653083 69.4707058 19.3894043 67.29418945 C18.44317364 66.18299148 17.49783765 65.07103094 16.5534668 63.95825195 C12.67659306 59.4217227 8.77162405 54.9131377 4.7487793 50.50512695 C4.01143555 49.69301758 3.2740918 48.8809082 2.5144043 48.04418945 C1.49540039 46.93430664 1.49540039 46.93430664 0.45581055 45.80200195 C-1.0480957 43.91918945 -1.0480957 43.91918945 -1.0480957 41.91918945 C-0.31695557 41.90460693 0.41418457 41.89002441 1.16748047 41.875 C4.49197801 41.80036035 7.81548897 41.70375144 11.1394043 41.60668945 C12.28989258 41.58413086 13.44038086 41.56157227 14.62573242 41.53833008 C15.73754883 41.50288086 16.84936523 41.46743164 17.99487305 41.4309082 C19.52664185 41.39163208 19.52664185 41.39163208 21.08935547 41.3515625 C25.12688097 40.74171536 27.76090306 38.98698366 30.7644043 36.29418945 C33.11950101 31.58399602 32.26861037 26.50271984 31.2644043 21.48168945 C30.1878227 18.75869921 30.1878227 18.75869921 27.68647766 17.77896118 C24.93451514 16.91372216 22.76065842 16.64490657 19.88623047 16.6003418 C18.41527168 16.57053726 18.41527168 16.57053726 16.91459656 16.54013062 C15.34558342 16.5228038 15.34558342 16.5228038 13.74487305 16.50512695 C12.66434158 16.4857608 11.58381012 16.46639465 10.47053528 16.44644165 C7.02690469 16.38676843 3.58324046 16.34030904 0.1394043 16.29418945 C-2.19850073 16.25599844 -4.53639185 16.21694605 -6.87426758 16.17700195 C-12.59875335 16.08107692 -18.32332318 15.99599352 -24.0480957 15.91918945 C-21.0535877 0.56818455 -14.35556688 -0.55612001 0 0 Z " fill="#5C5C60" transform="translate(35.048095703125,6.080810546875)"/>
<path d="M0 0 C0.495 0.99 0.495 0.99 1 2 C1.53625 1.67 2.0725 1.34 2.625 1 C5.6042758 -0.25443192 7.79316197 -0.27292239 11 0 C11.99 0.66 12.98 1.32 14 2 C14.37847861 6.08756901 14.58265332 9.64255069 12 13 C9.875 13.75 9.875 13.75 8 14 C8 13.34 8 12.68 8 12 C5.24358584 12.49756092 5.24358584 12.49756092 3 14 C6.3 14.33 9.6 14.66 13 15 C12.835 16.216875 12.67 17.43375 12.5 18.6875 C11.49288228 27.8234965 11.76690923 36.90595558 13 46 C8.71 46 4.42 46 0 46 C0.33 44.68 0.66 43.36 1 42 C1.1437323 40.2683761 1.24574932 38.53301667 1.31640625 36.796875 C1.37924805 35.32734375 1.37924805 35.32734375 1.44335938 33.828125 C1.48267578 32.81234375 1.52199219 31.7965625 1.5625 30.75 C1.62727539 29.203125 1.62727539 29.203125 1.69335938 27.625 C1.79925682 25.0834613 1.90133443 22.54182804 2 20 C1.01 20 0.02 20 -1 20 C-1 22.31 -1 24.62 -1 27 C-1.99 27.495 -1.99 27.495 -3 28 C-3.495 26.515 -3.495 26.515 -4 25 C-6.97 25.495 -6.97 25.495 -10 26 C-10.33 27.32 -10.66 28.64 -11 30 C-10.34 30 -9.68 30 -9 30 C-8.74605469 30.75925781 -8.49210937 31.51851562 -8.23046875 32.30078125 C-7.88628906 33.29464844 -7.54210937 34.28851563 -7.1875 35.3125 C-6.85105469 36.29863281 -6.51460938 37.28476562 -6.16796875 38.30078125 C-5.04113522 40.90493499 -4.03143163 42.10826567 -2 44 C-2 44.66 -2 45.32 -2 46 C-7.28 46 -12.56 46 -18 46 C-18.680625 43.2465625 -18.680625 43.2465625 -19.375 40.4375 C-20.50054537 35.92998417 -21.6836992 31.45517195 -23 27 C-24.65 27 -26.3 27 -28 27 C-27.67 33.27 -27.34 39.54 -27 46 C-31.29 46 -35.58 46 -40 46 C-40.1251398 39.49273027 -40.1251398 39.49273027 -39.50439453 37.04858398 C-38.94769219 34.78755331 -38.87056941 32.79965391 -38.8671875 30.47265625 C-38.86589844 29.59673828 -38.86460937 28.72082031 -38.86328125 27.81835938 C-38.86714844 26.90892578 -38.87101563 25.99949219 -38.875 25.0625 C-38.87113281 24.18787109 -38.86726562 23.31324219 -38.86328125 22.41210938 C-38.87369681 15.24099516 -39.37637672 8.1418361 -40 1 C-35.64589022 0.9416279 -31.29188207 0.90627827 -26.9375 0.875 C-25.70837891 0.85824219 -24.47925781 0.84148438 -23.21289062 0.82421875 C-17.09443607 0.79123517 -11.75520567 0.82790158 -6 3 C-6 3.99 -6 4.98 -6 6 C-5.195625 5.195625 -4.39125 4.39125 -3.5625 3.5625 C-2.375 2.375 -1.1875 1.1875 0 0 Z " fill="#356C9D" transform="translate(284,22)"/>
<path d="M0 0 C4.16642697 -0.11703447 8.3324259 -0.18753101 12.5 -0.25 C13.67304687 -0.28351562 14.84609375 -0.31703125 16.0546875 -0.3515625 C24.51774658 -0.44665305 30.1618444 0.35375218 36.5 6.375 C38.40818542 9.71432448 38.75818322 11.20908391 38 15 C35.70309895 18.71624854 33.62588927 21.58003726 29.29296875 22.69921875 C28.15794922 22.84810547 28.15794922 22.84810547 27 23 C30.53109213 30.40026754 34.29577066 37.27967237 39 44 C33.39 44 27.78 44 22 44 C21.28385417 40.484375 20.56770833 36.96875 19.8515625 33.453125 C18.95479417 29.46772703 18.95479417 29.46772703 17 26 C15.35 25.67 13.7 25.34 12 25 C12.66 31.27 13.32 37.54 14 44 C9.38 44 4.76 44 0 44 C0.16242188 42.62070313 0.32484375 41.24140625 0.4921875 39.8203125 C1.12210909 33.50106378 1.14690686 27.22068623 1.125 20.875 C1.12886719 19.74707031 1.13273437 18.61914062 1.13671875 17.45703125 C1.1298008 11.54218449 0.90073021 5.84759768 0 0 Z " fill="#3D74A1" transform="translate(95,24)"/>
<path d="M0 0 C0.82405838 -0.00287018 1.64811676 -0.00574036 2.49714661 -0.00869751 C4.2275156 -0.01072765 5.95790809 -0.0052717 7.68823242 0.00732422 C10.33499206 0.02345555 12.98023915 0.0074088 15.62695312 -0.01171875 C17.31380544 -0.00973734 19.00065682 -0.00589577 20.6875 0 C21.47609909 -0.00607269 22.26469818 -0.01214539 23.07719421 -0.0184021 C27.36114377 0.03649897 30.0506671 0.29687334 33.14453125 3.3984375 C32.83203125 6.2734375 32.83203125 6.2734375 32.14453125 9.3984375 C28.40448808 11.89179961 25.51891516 11.65324978 21.1953125 11.59375 C20.03638741 11.58950516 20.03638741 11.58950516 18.85404968 11.58517456 C16.38821882 11.57398628 13.92275219 11.54888453 11.45703125 11.5234375 C9.78451046 11.51340593 8.11198397 11.50428039 6.43945312 11.49609375 C2.34100566 11.47405142 -1.75716981 11.43953113 -5.85546875 11.3984375 C-5.27796875 12.09710938 -4.70046875 12.79578125 -4.10546875 13.515625 C-3.36296875 14.42570312 -2.62046875 15.33578125 -1.85546875 16.2734375 C-1.11296875 17.17835937 -0.37046875 18.08328125 0.39453125 19.015625 C2.14453125 21.3984375 2.14453125 21.3984375 2.14453125 23.3984375 C3.13453125 23.7284375 4.12453125 24.0584375 5.14453125 24.3984375 C6.8359375 26.296875 6.8359375 26.296875 8.70703125 28.7734375 C11.66434016 32.58495996 14.7295871 36.18266669 18.01953125 39.7109375 C22.30270795 44.34552033 26.16948495 49.18188837 29.92138672 54.24731445 C32.11149276 57.29433233 32.11149276 57.29433233 35.14453125 59.3984375 C35.14453125 60.0584375 35.14453125 60.7184375 35.14453125 61.3984375 C30.25843662 62.23299673 26.01023627 62.45034709 21.14453125 61.3984375 C17.16241419 58.09185815 14.35279468 54.31014069 11.38525391 50.09960938 C9.6043697 47.65781458 7.58056952 45.48042149 5.51953125 43.2734375 C0.85944337 38.14070725 -3.49675531 32.7871209 -7.85546875 27.3984375 C-10.27069506 24.46885744 -12.68680908 21.54002742 -15.10546875 18.61328125 C-18.13659751 14.77700891 -18.10758757 12.27273477 -17.85546875 7.3984375 C-17.29296875 5.1484375 -17.29296875 5.1484375 -15.85546875 3.3984375 C-10.41923178 0.56164584 -6.07646843 -0.04715563 0 0 Z " fill="#1974B5" transform="translate(20.85546875,28.6015625)"/>
<path d="M0 0 C3.96 0 7.92 0 12 0 C11.99476318 1.08418213 11.98952637 2.16836426 11.98413086 3.28540039 C11.96594667 7.3314531 11.95451917 11.37750223 11.94506836 15.42358398 C11.94005871 17.17033497 11.93324915 18.9170818 11.92456055 20.66381836 C11.91234681 23.18344146 11.90673787 25.70300881 11.90234375 28.22265625 C11.89718246 28.99585709 11.89202118 29.76905792 11.88670349 30.56568909 C11.8862358 35.14927328 12.24323879 39.47776262 13 44 C8.71 44 4.42 44 0 44 C0 42.02 0 40.04 0 38 C-0.598125 38.78375 -1.19625 39.5675 -1.8125 40.375 C-4.37472824 43.44967389 -5.9236928 44.86259908 -9.9375 45.375 C-13.67686517 44.91711855 -14.6965709 43.90061443 -17 41 C-19.34174585 36.3165083 -18.4957366 30.07990768 -18 25 C-16.117039 19.87459579 -12.69794379 15.79639511 -8 13 C-1.75294118 11.62352941 -1.75294118 11.62352941 1 13 C0.505 6.565 0.505 6.565 0 0 Z " fill="#5D5D5E" transform="translate(319,24)"/>
<path d="M0 0 C0.66 0.66 1.32 1.32 2 2 C1.9375 3.9375 1.9375 3.9375 1 6 C-1.5625 7.75 -1.5625 7.75 -4 9 C-3.071875 9.5775 -2.14375 10.155 -1.1875 10.75 C3.40883978 13.99447514 3.40883978 13.99447514 5 17 C5.58282268 20.82997759 5.1502221 22.69354692 3.4375 26.1875 C-0.55908661 30.79894608 -3.76188018 31.82199471 -9.68359375 32.29296875 C-12.34949944 32.44614465 -15.00051052 32.52989268 -17.671875 32.59375 C-20.97082452 32.70534359 -20.97082452 32.70534359 -22.953125 34.53125 C-23.47132813 35.25828125 -23.47132813 35.25828125 -24 36 C-22.700625 35.505 -22.700625 35.505 -21.375 35 C-14.37705979 33.02915153 -5.20571511 32.25826781 1.3125 35.875 C4 38 4 38 5 40 C5.49402148 44.28151952 5.41566259 46.98977205 2.75 50.375 C-0.79923518 53.76290631 -0.79923518 53.76290631 -4 54 C-3.34 52.02 -2.68 50.04 -2 48 C-4.85558013 44.38225966 -4.85558013 44.38225966 -8.95800781 42.54199219 C-11.18966598 42.39253718 -13.38848639 42.35210054 -15.625 42.375 C-23.43201754 42.375 -23.43201754 42.375 -26.0234375 40.6640625 C-27 39 -27 39 -27 36 C-26 33 -26 33 -23.4375 31.125 C-22.2309375 30.568125 -22.2309375 30.568125 -21 30 C-21.66 29.34 -22.32 28.68 -23 28 C-25.10151708 24.84772437 -25.65047653 22.78618838 -25.45703125 18.99609375 C-24.46950011 14.68303039 -21.53359131 11.99232379 -17.875 9.625 C-16 9 -16 9 -13 9 C-12.9175 8.071875 -12.835 7.14375 -12.75 6.1875 C-12 3 -12 3 -10.4375 1.125 C-6.77388077 -0.56590118 -4.02357417 -0.32448179 0 0 Z " fill="#5E5F61" transform="translate(189,27)"/>
<path d="M0 0 C3.0735547 1.70540923 5.40579136 3.81158271 7 7 C7.02045326 9.52743915 6.99479668 12.03686226 6.9375 14.5625 C6.85510641 20.69258276 7.30415139 26.06452986 9 32 C4.71 32 0.42 32 -4 32 C-4.33 31.34 -4.66 30.68 -5 30 C-5.515625 30.495 -6.03125 30.99 -6.5625 31.5 C-9.90028661 33.55402253 -12.14399755 33.41314312 -16 33 C-19.1850357 31.23984869 -19.83296972 30.50109084 -21 27 C-21.45578639 22.36617169 -21.75013484 19.37301687 -18.8125 15.625 C-14.91900458 11.99107094 -12.67065905 11.0864134 -7.375 10.8125 C-4 11 -4 11 -1 12 C-0.83322718 8.58343976 -0.83322718 8.58343976 -1 5 C-1.66 4.34 -2.32 3.68 -3 3 C-3.99 3 -4.98 3 -6 3 C-6.433125 4.4540625 -6.433125 4.4540625 -6.875 5.9375 C-8 9 -8 9 -10 10 C-11.99960012 10.039992 -14.00047242 10.04346799 -16 10 C-16.33 8.35 -16.66 6.7 -17 5 C-11.55622715 0.43900113 -7.0602095 -1.1065405 0 0 Z " fill="#5A5B5D" transform="translate(216,36)"/>
<path d="M0 0 C0.495 0.99 0.495 0.99 1 2 C1.53625 1.67 2.0725 1.34 2.625 1 C5.6042758 -0.25443192 7.79316197 -0.27292239 11 0 C11.99 0.66 12.98 1.32 14 2 C14.37847861 6.08756901 14.58265332 9.64255069 12 13 C9.875 13.75 9.875 13.75 8 14 C8 13.34 8 12.68 8 12 C5.24358584 12.49756092 5.24358584 12.49756092 3 14 C6.3 14.33 9.6 14.66 13 15 C12.835 16.216875 12.67 17.43375 12.5 18.6875 C11.49288228 27.8234965 11.76690923 36.90595558 13 46 C8.71 46 4.42 46 0 46 C0.33 44.68 0.66 43.36 1 42 C1.1437323 40.2683761 1.24574932 38.53301667 1.31640625 36.796875 C1.37924805 35.32734375 1.37924805 35.32734375 1.44335938 33.828125 C1.48267578 32.81234375 1.52199219 31.7965625 1.5625 30.75 C1.62727539 29.203125 1.62727539 29.203125 1.69335938 27.625 C1.79925682 25.0834613 1.90133443 22.54182804 2 20 C1.01 20 0.02 20 -1 20 C-1 22.31 -1 24.62 -1 27 C-1.99 27.495 -1.99 27.495 -3 28 C-3.495 26.515 -3.495 26.515 -4 25 C-6.97 25.495 -6.97 25.495 -10 26 C-10.33 27.32 -10.66 28.64 -11 30 C-10.34 30 -9.68 30 -9 30 C-6.875 34.625 -6.875 34.625 -8 38 C-9.00806851 36.40089132 -10.00620385 34.79551738 -11 33.1875 C-11.556875 32.29417969 -12.11375 31.40085937 -12.6875 30.48046875 C-14 28 -14 28 -14 25 C-13.44570313 24.74605469 -12.89140625 24.49210937 -12.3203125 24.23046875 C-11.59585937 23.88628906 -10.87140625 23.54210937 -10.125 23.1875 C-9.04605469 22.68283203 -9.04605469 22.68283203 -7.9453125 22.16796875 C-5.69457194 21.00532903 -5.69457194 21.00532903 -4 18 C-3.47434259 13.93239436 -3.47434259 13.93239436 -4 10 C-8.41056091 5.05156581 -13.17940447 3.35178417 -19.72045898 2.74951172 C-22.79277479 2.58168036 -25.86199207 2.46663525 -28.9375 2.375 C-30.00291016 2.33632813 -31.06832031 2.29765625 -32.16601562 2.2578125 C-34.77717734 2.16413854 -37.38834304 2.07841665 -40 2 C-40 1.67 -40 1.34 -40 1 C-35.64589022 0.9416279 -31.29188207 0.90627827 -26.9375 0.875 C-25.70837891 0.85824219 -24.47925781 0.84148438 -23.21289062 0.82421875 C-17.09443607 0.79123517 -11.75520567 0.82790158 -6 3 C-6 3.99 -6 4.98 -6 6 C-5.195625 5.195625 -4.39125 4.39125 -3.5625 3.5625 C-2.375 2.375 -1.1875 1.1875 0 0 Z " fill="#E9F3F8" transform="translate(284,22)"/>
<path d="M0 0 C1.9375 1.9375 1.9375 1.9375 2.5625 5.8125 C2.34301378 9.13527748 1.92446842 9.95474768 -0.1875 12.75 C-5.15342976 16.52842482 -8.73907741 18.38917304 -15.0625 17.9375 C-14.32557084 21.07914535 -13.50687265 24.04346396 -12.0625 26.9375 C-9.03365156 28.61786511 -9.03365156 28.61786511 -6.0625 28.9375 C-6.7225 25.9675 -7.3825 22.9975 -8.0625 19.9375 C-4.2121895 17.37062633 -2.47680237 18.10461276 1.9375 18.9375 C2.25 21.625 2.25 21.625 1.9375 24.9375 C-0.61274365 28.03914769 -2.23949247 29.66316416 -6.0625 30.9375 C-11.30259378 31.37417448 -15.04284072 31.23112374 -19.51953125 28.33203125 C-23.42385939 24.80330936 -24.87251845 20.48449263 -25.5 15.375 C-24.61297152 8.40549048 -22.07969555 4.4472174 -16.78125 0.1015625 C-11.62303093 -3.3919586 -5.53839341 -1.92148343 0 0 Z " fill="#5F5F61" transform="translate(159.0625,38.0625)"/>
<path d="M0 0 C2.60847629 1.49745861 4.87028902 2.87028902 7 5 C7.56706787 9.0639864 7.19454091 10.69934587 4.9375 14.1875 C1.2160744 18.19276314 -2.99683757 19.89073659 -8.4375 20.1875 C-9.7059375 20.0946875 -9.7059375 20.0946875 -11 20 C-10.690625 20.9075 -10.38125 21.815 -10.0625 22.75 C-9.2727737 25.16563338 -8.57050703 27.52780285 -8 30 C-5.69 30.33 -3.38 30.66 -1 31 C-1.66 28.03 -2.32 25.06 -3 22 C0.22373677 19.85084215 1.26703674 19.61713197 5 20 C5.66 20.66 6.32 21.32 7 22 C6.9006627 25.67548019 6.03000948 26.96614315 3.5625 29.75 C-0.0385277 32.91187798 -2.09103611 33.29335267 -6.90625 33.21484375 C-11.46058721 32.74751437 -14.26896095 30.79031249 -17.3125 27.5 C-20.44253444 22.86291195 -20.62327722 18.42514534 -20 13 C-18.20256807 7.14550744 -15.47757862 3.91360565 -10 1 C-6.38069302 -0.20643566 -3.80768995 -0.32268559 0 0 Z " fill="#626262" transform="translate(353,36)"/>
<path d="M0 0 C3.96 0 7.92 0 12 0 C12 14.52 12 29.04 12 44 C8.04 44 4.08 44 0 44 C0.16242188 42.5975 0.32484375 41.195 0.4921875 39.75 C1.08262804 33.82473095 1.14765384 27.95040974 1.125 22 C1.12886719 20.98421875 1.13273438 19.9684375 1.13671875 18.921875 C1.12854229 12.54423346 0.73371791 6.33559591 0 0 Z " fill="#54585A" transform="translate(228,24)"/>
<path d="M0 0 C3.96 0 7.92 0 12 0 C11.99476318 1.08418213 11.98952637 2.16836426 11.98413086 3.28540039 C11.96594667 7.3314531 11.95451917 11.37750223 11.94506836 15.42358398 C11.94005871 17.17033497 11.93324915 18.9170818 11.92456055 20.66381836 C11.91234681 23.18344146 11.90673787 25.70300881 11.90234375 28.22265625 C11.89718246 28.99585709 11.89202118 29.76905792 11.88670349 30.56568909 C11.8862358 35.14927328 12.24323879 39.47776262 13 44 C8.71 44 4.42 44 0 44 C0.165 42.741875 0.33 41.48375 0.5 40.1875 C1.14274777 34.05057952 1.03075615 27.9383535 0.875 21.77807617 C0.8052485 17.04127113 1.32506038 13.49277921 3 9 C3 7.68 3 6.36 3 5 C3.99 5.33 4.98 5.66 6 6 C4.36526484 2.87525373 4.36526484 2.87525373 1.875 2.3125 C1.25625 2.209375 0.6375 2.10625 0 2 C0 1.34 0 0.68 0 0 Z " fill="#58595C" transform="translate(319,24)"/>
<path d="M0 0 C3.0735547 1.70540923 5.40579136 3.81158271 7 7 C7.02045326 9.52743915 6.99479668 12.03686226 6.9375 14.5625 C6.85510641 20.69258276 7.30415139 26.06452986 9 32 C4.71 32 0.42 32 -4 32 C-4.28571429 21.42857143 -4.28571429 21.42857143 -2 16 C-1.01 16 -0.02 16 1 16 C0.30461386 9.76186467 0.30461386 9.76186467 -2 4 C-4.04105639 3.11306697 -4.04105639 3.11306697 -6 3 C-6.433125 4.4540625 -6.433125 4.4540625 -6.875 5.9375 C-8 9 -8 9 -10 10 C-11.99960012 10.039992 -14.00047242 10.04346799 -16 10 C-16.33 8.35 -16.66 6.7 -17 5 C-11.55622715 0.43900113 -7.0602095 -1.1065405 0 0 Z " fill="#5A5A5C" transform="translate(216,36)"/>
<path d="M0 0 C0.82405838 -0.00287018 1.64811676 -0.00574036 2.49714661 -0.00869751 C4.2275156 -0.01072765 5.95790809 -0.0052717 7.68823242 0.00732422 C10.33499206 0.02345555 12.98023915 0.0074088 15.62695312 -0.01171875 C17.31380544 -0.00973734 19.00065682 -0.00589577 20.6875 0 C21.47609909 -0.00607269 22.26469818 -0.01214539 23.07719421 -0.0184021 C27.36114377 0.03649897 30.0506671 0.29687334 33.14453125 3.3984375 C32.83203125 6.2734375 32.83203125 6.2734375 32.14453125 9.3984375 C28.40448808 11.89179961 25.51891516 11.65324978 21.1953125 11.59375 C20.03638741 11.58950516 20.03638741 11.58950516 18.85404968 11.58517456 C16.38821882 11.57398628 13.92275219 11.54888453 11.45703125 11.5234375 C9.78451046 11.51340593 8.11198397 11.50428039 6.43945312 11.49609375 C2.34100566 11.47405142 -1.75716981 11.43953113 -5.85546875 11.3984375 C-5.27796875 12.09710938 -4.70046875 12.79578125 -4.10546875 13.515625 C-3.36296875 14.42570312 -2.62046875 15.33578125 -1.85546875 16.2734375 C-1.11296875 17.17835937 -0.37046875 18.08328125 0.39453125 19.015625 C2.14453125 21.3984375 2.14453125 21.3984375 2.14453125 23.3984375 C3.13453125 23.7284375 4.12453125 24.0584375 5.14453125 24.3984375 C6.53125 26.02734375 6.53125 26.02734375 7.83203125 27.9609375 C8.48751953 28.92193359 8.48751953 28.92193359 9.15625 29.90234375 C9.48238281 30.39605469 9.80851562 30.88976562 10.14453125 31.3984375 C7.14453125 32.3984375 7.14453125 32.3984375 4.14453125 31.3984375 C3.12923584 29.07171885 2.12964927 26.7380928 1.14453125 24.3984375 C0.15453125 23.7384375 -0.83546875 23.0784375 -1.85546875 22.3984375 C-1.85546875 21.4084375 -1.85546875 20.4184375 -1.85546875 19.3984375 C-2.47421875 19.2953125 -3.09296875 19.1921875 -3.73046875 19.0859375 C-5.85546875 18.3984375 -5.85546875 18.3984375 -7.85546875 15.3984375 C-7.52546875 13.7484375 -7.19546875 12.0984375 -6.85546875 10.3984375 C4.36453125 10.0684375 15.58453125 9.7384375 27.14453125 9.3984375 C27.80453125 7.4184375 28.46453125 5.4384375 29.14453125 3.3984375 C23.68189814 3.34891227 18.21939643 3.31265854 12.7565918 3.28857422 C10.89914676 3.27853135 9.04171746 3.26489446 7.18432617 3.24755859 C4.51086534 3.22323489 1.83761399 3.21193717 -0.8359375 3.203125 C-1.66320847 3.19280243 -2.49047943 3.18247986 -3.34281921 3.17184448 C-7.6420589 3.17101231 -10.9353266 3.39857681 -14.85546875 5.3984375 C-15.50417528 11.55992919 -15.50417528 11.55992919 -12.85546875 16.8359375 C-12.19546875 17.3515625 -11.53546875 17.8671875 -10.85546875 18.3984375 C-10.85546875 19.0584375 -10.85546875 19.7184375 -10.85546875 20.3984375 C-9.20546875 20.7284375 -7.55546875 21.0584375 -5.85546875 21.3984375 C-5.52546875 23.3784375 -5.19546875 25.3584375 -4.85546875 27.3984375 C-3.86546875 27.7284375 -2.87546875 28.0584375 -1.85546875 28.3984375 C-2.18546875 29.0584375 -2.51546875 29.7184375 -2.85546875 30.3984375 C-1.53546875 30.7284375 -0.21546875 31.0584375 1.14453125 31.3984375 C1.14453125 33.0484375 1.14453125 34.6984375 1.14453125 36.3984375 C-4.50786945 32.14918557 -8.50962937 26.92307599 -12.85546875 21.3984375 C-13.41363281 20.72941406 -13.97179687 20.06039062 -14.546875 19.37109375 C-16.90606138 16.40698779 -17.84254832 14.50733827 -18.29296875 10.7109375 C-17.60913444 5.53333486 -17.60913444 5.53333486 -15.85546875 3.3984375 C-10.41923178 0.56164584 -6.07646843 -0.04715563 0 0 Z " fill="#437AA1" transform="translate(20.85546875,28.6015625)"/>
<path d="M0 0 C3.96 0 7.92 0 12 0 C11.835 1.216875 11.67 2.43375 11.5 3.6875 C10.49288228 12.8234965 10.76690923 21.90595558 12 31 C7.71 31 3.42 31 -1 31 C-0.67 29.68 -0.34 28.36 0 27 C0.08120233 24.9023604 0.10755808 22.80231238 0.09765625 20.703125 C0.09443359 19.49785156 0.09121094 18.29257812 0.08789062 17.05078125 C0.07532227 15.16939453 0.07532227 15.16939453 0.0625 13.25 C0.05798828 11.98027344 0.05347656 10.71054687 0.04882812 9.40234375 C0.03704566 6.26820905 0.01911036 3.13409858 0 0 Z " fill="#57595B" transform="translate(285,37)"/>
<path d="M0 0 C3.63 0 7.26 0 11 0 C10.67 1.32 10.34 2.64 10 4 C9.67 4 9.34 4 9 4 C7.79206122 11.48355823 7.92284341 18.87229594 8 26.4375 C8.02536519 28.97782338 8.04644692 31.51819446 8.0625 34.05859375 C8.07410156 35.17548584 8.08570312 36.29237793 8.09765625 37.44311523 C8 40 8 40 7 41 C4.66702567 41.04092937 2.33294775 41.04241723 0 41 C-1.125 37.25 -1.125 37.25 0 35 C0.08667255 32.37372867 0.11560135 29.77437517 0.09765625 27.1484375 C0.0962413 26.37440582 0.09482635 25.60037415 0.09336853 24.80288696 C0.08776403 22.32688558 0.07521083 19.85097412 0.0625 17.375 C0.05748558 15.69791797 0.05292257 14.02083453 0.04882812 12.34375 C0.03779315 8.22913194 0.02052554 4.11458122 0 0 Z " fill="#1A71BA" transform="translate(98,25)"/>
<path d="M0 0 C2.60847629 1.49745861 4.87028902 2.87028902 7 5 C7.56706787 9.0639864 7.19454091 10.69934587 4.9375 14.1875 C2.04866328 17.28851117 -0.91861144 18.78274376 -5 20 C-8.4375 19.6875 -8.4375 19.6875 -11 19 C-10.96519531 18.30132812 -10.93039062 17.60265625 -10.89453125 16.8828125 C-10.85392578 15.51769531 -10.85392578 15.51769531 -10.8125 14.125 C-10.76029297 12.76761719 -10.76029297 12.76761719 -10.70703125 11.3828125 C-10.85205078 10.20332031 -10.85205078 10.20332031 -11 9 C-11.99 8.34 -12.98 7.68 -14 7 C-14 6.67 -14 6.34 -14 6 C-14.66 5.67 -15.32 5.34 -16 5 C-10.42026353 1.15618155 -6.86967742 -0.58217605 0 0 Z " fill="#5D5D5E" transform="translate(353,36)"/>
<path d="M0 0 C1.4540625 0.0309375 1.4540625 0.0309375 2.9375 0.0625 C4.18132542 3.91804863 4.09922105 7.77851532 4.10546875 11.78515625 C4.10879715 12.52704697 4.11212555 13.26893768 4.11555481 14.03330994 C4.12060559 15.59747703 4.12296371 17.16165484 4.12280273 18.72583008 C4.12499554 21.12013356 4.14318757 23.5139807 4.16210938 25.90820312 C4.16504241 27.42968593 4.16702781 28.95117091 4.16796875 30.47265625 C4.17515427 31.18833267 4.18233978 31.90400909 4.18974304 32.64137268 C4.17268951 36.34165467 4.04697211 37.89829183 1.9375 41.0625 C-1.1875 41.25 -1.1875 41.25 -4.0625 41.0625 C-4.08714705 35.38419922 -4.10533462 29.70592931 -4.11743164 24.02758789 C-4.12247256 22.09431415 -4.12930519 20.16104424 -4.13793945 18.2277832 C-4.15001565 15.45523128 -4.15573057 12.68272959 -4.16015625 9.91015625 C-4.16531754 9.04036636 -4.17047882 8.17057648 -4.17579651 7.27442932 C-4.17599185 5.20344186 -4.12458168 3.13255676 -4.0625 1.0625 C-3.0625 0.0625 -3.0625 0.0625 0 0 Z " fill="#1A72BB" transform="translate(251.0625,24.9375)"/>
<path d="M0 0 C2 2 2 2 2 3.875 C0.47883038 7.10748544 -1.96279217 8.26445267 -5 10 C-5.66 10 -6.32 10 -7 10 C-6.96519531 10.85722656 -6.93039063 11.71445312 -6.89453125 12.59765625 C-6.73781639 19.21699334 -6.746111 24.17011554 -10 30 C-11.65 29.67 -13.3 29.34 -15 29 C-15.33 25.04 -15.66 21.08 -16 17 C-17.32 17.33 -18.64 17.66 -20 18 C-19.0022242 15.00667261 -18.2477975 14.05233685 -16 12 C-17.32 11.67 -18.64 11.34 -20 11 C-17.35261084 9.5393715 -16.10551666 9 -13 9 C-12.9175 8.071875 -12.835 7.14375 -12.75 6.1875 C-12 3 -12 3 -10.4375 1.125 C-6.77388077 -0.56590118 -4.02357417 -0.32448179 0 0 Z " fill="#5C5D5D" transform="translate(189,27)"/>
<path d="M0 0 C0.99 0 1.98 0 3 0 C6.96241044 6.3398567 6.19273025 15.08755726 6.1875 22.3125 C6.18814453 23.23442139 6.18878906 24.15634277 6.18945312 25.10620117 C6.13892867 31.61754037 5.51693068 37.64785278 4 44 C8.29 44 12.58 44 17 44 C17 44.33 17 44.66 17 45 C14.54159395 45.02691685 12.08348118 45.04679802 9.625 45.0625 C8.92632812 45.07087891 8.22765625 45.07925781 7.5078125 45.08789062 C2.2265625 45.11328125 2.2265625 45.11328125 0 44 C-1.42124144 36.90278801 -1.15221893 29.63713973 -1.13037109 22.42651367 C-1.12498617 20.30705703 -1.13035477 18.18780979 -1.13671875 16.06835938 C-1.13605833 14.70833287 -1.13477793 13.34830649 -1.1328125 11.98828125 C-1.13168457 10.76665283 -1.13055664 9.54502441 -1.12939453 8.28637695 C-1.01546531 5.39278976 -0.66957939 2.80964025 0 0 Z " fill="#E8F0F4" transform="translate(240,24)"/>
<path d="M0 0 C7.84888044 5.70827669 13.63202192 13.92485888 19.765625 21.36328125 C21.85389703 23.91763284 21.85389703 23.91763284 23.796875 25.73046875 C25 27 25 27 25 29 C20.11390537 29.83455923 15.86570502 30.05190959 11 29 C7.03207994 25.70520924 4.2357907 21.94498737 1.28027344 17.74951172 C-0.69575335 15.04924323 -2.92057612 12.64863076 -5.1875 10.1875 C-6.29158203 8.97126953 -6.29158203 8.97126953 -7.41796875 7.73046875 C-7.94003906 7.15941406 -8.46210938 6.58835937 -9 6 C-7.68 5.67 -6.36 5.34 -5 5 C-4.4225 5.94875 -3.845 6.8975 -3.25 7.875 C-1.17183449 10.76134098 -0.24531925 11.84095741 3 13 C3 13.66 3 14.32 3 15 C3.928125 15.2165625 3.928125 15.2165625 4.875 15.4375 C7 16 7 16 9 17 C8.43333454 15.53510951 7.84595772 14.07821997 7.25 12.625 C6.92515625 11.81289062 6.6003125 11.00078125 6.265625 10.1640625 C4.78169942 7.62673297 3.58794178 7.23033298 1 6 C0.25 2.875 0.25 2.875 0 0 Z " fill="#2973A6" transform="translate(31,61)"/>
<path d="M0 0 C3.44153539 -0.52371191 5.30318123 -0.41432468 8.3125 1.375 C10.88229459 5.37245825 11.46044171 9.28418567 11 14 C9.38076765 17.18109033 7.23169652 19.38415174 4 21 C2.45976004 21.06950541 0.91665012 21.08452357 -0.625 21.0625 C-1.85089844 21.04896484 -1.85089844 21.04896484 -3.1015625 21.03515625 C-3.72804688 21.02355469 -4.35453125 21.01195313 -5 21 C-5.4509854 12.84885643 -4.62696471 6.94044706 0 0 Z " fill="#E2EFF6" transform="translate(260,26)"/>
<path d="M0 0 C3.17583919 3.25941391 4.28693287 6.10873936 4.5625 10.5625 C4.41208189 14.2790808 4.05251245 14.93536929 1.5625 18 C0.716875 18.66 -0.12875 19.32 -1 20 C-1.33 20.33 -1.66 20.66 -2 21 C-3.51928038 21.07179964 -5.04167482 21.08392007 -6.5625 21.0625 C-7.38878906 21.05347656 -8.21507813 21.04445313 -9.06640625 21.03515625 C-10.02353516 21.01775391 -10.02353516 21.01775391 -11 21 C-11.33217441 13.61834645 -11.28913446 7.70477409 -8 1 C-5.08944799 -0.455276 -3.21908202 -0.45067148 0 0 Z " fill="#EDF5F7" transform="translate(118,26)"/>
<path d="M0 0 C3.65804856 -0.20322492 5.92395041 -0.03113198 9 2 C10.78125 4.609375 10.78125 4.609375 12.5 7.75 C14.85496815 12.01035147 17.28227287 15.92340931 20 20 C14.39 20 8.78 20 3 20 C2.25130208 16.484375 1.50260417 12.96875 0.75390625 9.453125 C0.33073956 7.51489001 -0.11894711 5.58051787 -0.66015625 3.671875 C-1 2 -1 2 0 0 Z " fill="#266FAB" transform="translate(114,48)"/>
<path d="M0 0 C0.80824219 0.10183594 1.61648437 0.20367187 2.44921875 0.30859375 C3.06410156 0.39238281 3.67898437 0.47617187 4.3125 0.5625 C2.90552231 6.64064361 1.1631683 12.66669345 -3.25 17.1875 C-5.6875 18.5625 -5.6875 18.5625 -8.6875 18.5625 C-8.6875 16.9125 -8.6875 15.2625 -8.6875 13.5625 C-9.3475 13.5625 -10.0075 13.5625 -10.6875 13.5625 C-10.6875 12.9025 -10.6875 12.2425 -10.6875 11.5625 C-11.6775 11.2325 -12.6675 10.9025 -13.6875 10.5625 C-14.0175 11.8825 -14.3475 13.2025 -14.6875 14.5625 C-15.875 12.875 -15.875 12.875 -16.6875 10.5625 C-14.80972817 5.98543115 -11.54885311 3.45851483 -7.6875 0.5625 C-4.59271121 -0.46909626 -3.16118607 -0.41232862 0 0 Z " fill="#5D5E61" transform="translate(151.6875,36.4375)"/>
<path d="M0 0 C0.36351562 0.70125 0.72703125 1.4025 1.1015625 2.125 C4.00086726 7.59650847 6.99514778 12.62734893 10.8984375 17.44140625 C12 19 12 19 12 21 C6.72 21 1.44 21 -4 21 C-4.70293826 17.48530872 -5.10425339 15.16429849 -5 11.75 C-5 10.5125 -5 9.275 -5 8 C-5.33 7.67 -5.66 7.34 -6 7 C-6.04063832 5.33382885 -6.042721 3.66611905 -6 2 C-2.25 0 -2.25 0 0 0 Z " fill="#1972BC" transform="translate(270,47)"/>
<path d="M0 0 C1.32 0 2.64 0 4 0 C3.93039063 0.97839844 3.93039063 0.97839844 3.859375 1.9765625 C3.60733435 8.07954686 4.03942021 11.2968115 8 16 C6.824375 16.309375 6.824375 16.309375 5.625 16.625 C2.68861556 17.78871514 2.68861556 17.78871514 1.875 21.0625 C1.441875 22.5165625 1.441875 22.5165625 1 24 C0.01 24.33 -0.98 24.66 -2 25 C-2 21.38970831 -1.03907418 18.44193324 0 15 C-4.65052872 14.73067479 -4.65052872 14.73067479 -9 16 C-8.67 18.97 -8.34 21.94 -8 25 C-10.64213132 25.21422686 -12.41516867 25.33418933 -14.75 24 C-16.72884931 20.83384111 -16.69696193 17.69706448 -17 14 C-15.824375 13.7525 -14.64875 13.505 -13.4375 13.25 C-8.96050788 12.08900382 -5.71333216 10.82213244 -2 8 C-0.82641299 5.27727815 -0.44567924 2.97119494 0 0 Z " fill="#EFEFEF" transform="translate(161,42)"/>
<path d="M0 0 C2.625 0.375 2.625 0.375 5 1 C5.75464447 17.51832889 5.75464447 17.51832889 0.52734375 23.7578125 C-1 25 -1 25 -3.125 24.8125 C-5 24 -5 24 -6 22 C-6.77958487 14.52365325 -5.90009065 8.47642791 -2 2 C-1.34 1.34 -0.68 0.68 0 0 Z " fill="#F2F2F3" transform="translate(316,39)"/>
<path d="M0 0 C0.33 0 0.66 0 1 0 C1.33 9.9 1.66 19.8 2 30 C-1.96 30 -5.92 30 -10 30 C-9.34 24.06 -8.68 18.12 -8 12 C-6.35 11.34 -4.7 10.68 -3 10 C-2.34 9.67 -1.68 9.34 -1 9 C-0.53348793 6.87423218 -0.53348793 6.87423218 -0.375 4.4375 C-0.30023438 3.61121094 -0.22546875 2.78492188 -0.1484375 1.93359375 C-0.09945312 1.29550781 -0.05046875 0.65742187 0 0 Z " fill="#616366" transform="translate(238,38)"/>
<path d="M0 0 C4.29161047 -0.05783842 8.58312145 -0.0935412 12.875 -0.125 C14.09832031 -0.14175781 15.32164063 -0.15851562 16.58203125 -0.17578125 C17.74863281 -0.18222656 18.91523437 -0.18867188 20.1171875 -0.1953125 C21.19597168 -0.20578613 22.27475586 -0.21625977 23.38623047 -0.22705078 C26 0 26 0 28 2 C27.625 5.125 27.625 5.125 27 8 C26.505 7.175 26.01 6.35 25.5 5.5 C23.33727308 2.84997241 23.33727308 2.84997241 20.953125 2.66796875 C18.96574402 2.68558738 16.98059391 2.83495051 15 3 C14.67 3.66 14.34 4.32 14 5 C14 3.68 14 2.36 14 1 C10.37 1 6.74 1 3 1 C3.16242188 2.38574219 3.32484375 3.77148438 3.4921875 5.19921875 C4.11150677 11.40882453 4.14720425 17.57680781 4.125 23.8125 C4.12886719 24.91787109 4.13273437 26.02324219 4.13671875 27.16210938 C4.13542969 28.22880859 4.13414063 29.29550781 4.1328125 30.39453125 C4.13168457 31.35206299 4.13055664 32.30959473 4.12939453 33.29614258 C4.00191508 35.95998204 3.59383417 38.40381835 3 41 C5.31 41 7.62 41 10 41 C10.33 37.37 10.66 33.74 11 30 C11.33 30 11.66 30 12 30 C12.66 34.62 13.32 39.24 14 44 C9.38 44 4.76 44 0 44 C0.16242188 42.62070313 0.32484375 41.24140625 0.4921875 39.8203125 C1.12210909 33.50106378 1.14690686 27.22068623 1.125 20.875 C1.12886719 19.74707031 1.13273437 18.61914062 1.13671875 17.45703125 C1.1298008 11.54218449 0.90073021 5.84759768 0 0 Z " fill="#3C729F" transform="translate(95,24)"/>
<path d="M0 0 C3.96 0 7.92 0 12 0 C11.67 2.31 11.34 4.62 11 7 C9.68 7.33 8.36 7.66 7 8 C7.66 9.32 8.32 10.64 9 12 C9.33 12 9.66 12 10 12 C10 14.64 10 17.28 10 20 C9.01 20.33 8.02 20.66 7 21 C6.26676204 23.01508358 6.26676204 23.01508358 6 25 C4.68 25.33 3.36 25.66 2 26 C1.18293599 19.79473006 0.54739684 14.91510174 3 9 C3 7.68 3 6.36 3 5 C3.99 5.33 4.98 5.66 6 6 C4.36526484 2.87525373 4.36526484 2.87525373 1.875 2.3125 C1.25625 2.209375 0.6375 2.10625 0 2 C0 1.34 0 0.68 0 0 Z " fill="#555659" transform="translate(319,24)"/>
<path d="M0 0 C1.65 0 3.3 0 5 0 C5.6509259 1.24735567 6.29551669 2.49801832 6.9375 3.75 C7.29714844 4.44609375 7.65679687 5.1421875 8.02734375 5.859375 C10.0427356 10.29485585 10.09345854 14.14015613 10 19 C3.34362157 20.23839599 -3.2471936 20.09139136 -10 20 C-10 19.67 -10 19.34 -10 19 C-6.04 19 -2.08 19 2 19 C1.67 17.72125 1.34 16.4425 1 15.125 C-0.1471657 10.04354065 -0.19486434 5.18555673 0 0 Z " fill="#D4ECF8" transform="translate(107,49)"/>
<path d="M0 0 C1.98 0 3.96 0 6 0 C6 1.32 6 2.64 6 4 C5.01 4 4.02 4 3 4 C3.33 5.32 3.66 6.64 4 8 C3.34 8 2.68 8 2 8 C2.33 9.65 2.66 11.3 3 13 C1.906875 13.20625 0.81375 13.4125 -0.3125 13.625 C-4.2285659 14.65663938 -4.2285659 14.65663938 -5.9375 18.125 C-6.288125 19.07375 -6.63875 20.0225 -7 21 C-7.99 19.68 -8.98 18.36 -10 17 C-10.33 17.33 -10.66 17.66 -11 18 C-10.34 18 -9.68 18 -9 18 C-9.99 20.475 -9.99 20.475 -11 23 C-11.66 23 -12.32 23 -13 23 C-13.33 24.98 -13.66 26.96 -14 29 C-13.34 29.33 -12.68 29.66 -12 30 C-12 30.66 -12 31.32 -12 32 C-13.485 32.495 -13.485 32.495 -15 33 C-16.5 31.9375 -16.5 31.9375 -18 30 C-18.86574953 24.48084676 -17.47962724 21.22212928 -14.41796875 16.796875 C-11.37939465 12.94634033 -9.13467119 11.2500123 -4.3125 10.1875 C-1 10 -1 10 1 11 C0.67 7.37 0.34 3.74 0 0 Z " fill="#5B5C5E" transform="translate(319,26)"/>
<path d="M0 0 C2 1 2 1 3 2 C4.00389135 6.31673282 3.92653134 9.6761871 3 14 C3.66 14.33 4.32 14.66 5 15 C4.34 15 3.68 15 3 15 C3 16.65 3 18.3 3 20 C2.01 20.33 1.02 20.66 0 21 C-0.99 20.01 -1.98 19.02 -3 18 C-3.66 18.33 -4.32 18.66 -5 19 C-6.97276408 15.05447185 -6.55672358 10.07715487 -5.43359375 5.88671875 C-4.6875 4 -4.6875 4 -3 1 C-2.01 0.67 -1.02 0.34 0 0 Z " fill="#565859" transform="translate(339,41)"/>
<path d="M0 0 C0.99 0 1.98 0 3 0 C3 7.26 3 14.52 3 22 C2.67 22 2.34 22 2 22 C2 20.35 2 18.7 2 17 C-0.60582371 16.06934867 -1.64198224 15.85082593 -4.25 16.9375 C-4.8275 17.288125 -5.405 17.63875 -6 18 C-6.66 15.36 -7.32 12.72 -8 10 C-8.66 10 -9.32 10 -10 10 C-9.67 8.35 -9.34 6.7 -9 5 C-6.125 4.375 -6.125 4.375 -3 4 C-2.34 4.66 -1.68 5.32 -1 6 C-0.67 4.02 -0.34 2.04 0 0 Z " fill="#F3F5F5" transform="translate(283,42)"/>
<path d="M0 0 C0.66 0 1.32 0 2 0 C2 0.66 2 1.32 2 2 C2.66 2.33 3.32 2.66 4 3 C4.02698189 4.62490954 4.04638757 6.24994633 4.0625 7.875 C4.07410156 8.77992187 4.08570313 9.68484375 4.09765625 10.6171875 C4 13 4 13 3 15 C2.34 15 1.68 15 1 15 C0 14 -1 13 -2 12 C-8.66629629 7.66457654 -19.48543253 9.56865382 -27 11 C-26.67 10.01 -26.34 9.02 -26 8 C-23.01568726 6.50784363 -20.13245366 6.76264862 -16.8125 6.625 C-11.29050436 6.32488442 -6.78906594 5.89571429 -2 3 C-1.34 2.01 -0.68 1.02 0 0 Z " fill="#EDEEEF" transform="translate(192,52)"/>
<path d="M0 0 C1.32 0 2.64 0 4 0 C4.31461385 7.09629025 4.44572039 12.68284595 1 19 C-0.65 18.67 -2.3 18.34 -4 18 C-4.55697798 6.40660653 -4.55697798 6.40660653 -1 1 C-0.67 0.67 -0.34 0.34 0 0 Z " fill="#F1F2F2" transform="translate(178,38)"/>
<path d="M0 0 C3.96 0 7.92 0 12 0 C10.95120973 5.24395134 10.51358973 5.59620995 7 9 C6.63837971 10.32594105 6.30271961 11.65938457 6 13 C5.02149805 14.02104551 4.02019573 15.0206121 3 16 C2.34 17.32 1.68 18.64 1 20 C0.67 13.4 0.34 6.8 0 0 Z " fill="#5B5C5F" transform="translate(285,37)"/>
<path d="M0 0 C1.21816406 0.03480469 1.21816406 0.03480469 2.4609375 0.0703125 C3.68683594 0.09738281 3.68683594 0.09738281 4.9375 0.125 C5.87722656 0.15980469 5.87722656 0.15980469 6.8359375 0.1953125 C8.78160701 3.67078323 8.91230877 5.32037594 7.8359375 9.1953125 C8.8259375 9.8553125 9.8159375 10.5153125 10.8359375 11.1953125 C1.98206931 11.81422367 1.98206931 11.81422367 -2.2890625 9.5078125 C-4.1640625 7.1953125 -4.1640625 7.1953125 -4.6015625 4.5703125 C-4.02693477 1.45090482 -3.23716149 0.29216259 0 0 Z " fill="#5B5B5E" transform="translate(173.1640625,70.8046875)"/>
<path d="M0 0 C1.11375 0.1546875 1.11375 0.1546875 2.25 0.3125 C1.2522242 3.30582739 0.4977975 4.26016315 -1.75 6.3125 C-1.09 6.3125 -0.43 6.3125 0.25 6.3125 C0.58 5.6525 0.91 4.9925 1.25 4.3125 C1.91 3.9825 2.57 3.6525 3.25 3.3125 C3.53571429 10.74107143 3.53571429 10.74107143 1.25 14.3125 C0.59 14.3125 -0.07 14.3125 -0.75 14.3125 C-1.08 15.3025 -1.41 16.2925 -1.75 17.3125 C-5.625 15.5625 -5.625 15.5625 -6.75 13.3125 C-7.32233704 6.32998808 -7.32233704 6.32998808 -5.0625 2.3125 C-2.75 0.3125 -2.75 0.3125 0 0 Z M-2.75 6.3125 C-1.75 9.3125 -1.75 9.3125 -1.75 9.3125 Z " fill="#57585A" transform="translate(170.75,38.6875)"/>
<path d="M0 0 C0.99 0.66 1.98 1.32 3 2 C3.375 4.4375 3.375 4.4375 3 7 C1.37053029 9.15891887 0.50495355 9.91629112 -2.19140625 10.36328125 C-2.97386719 10.34652344 -3.75632812 10.32976563 -4.5625 10.3125 C-5.34753906 10.30863281 -6.13257813 10.30476563 -6.94140625 10.30078125 C-9 10 -9 10 -11 8 C-10.84285399 4.93565274 -10.41646074 3.44730969 -8.3125 1.1875 C-5.33010093 -0.34400223 -3.31309774 -0.35245721 0 0 Z " fill="#5D5E5F" transform="translate(295,22)"/>
<path d="M0 0 C-3.78116974 1.18161554 -7.30549472 2.09824483 -11.25 2.5 C-15.07102027 2.7296648 -15.07102027 2.7296648 -18 5 C-13.38 5 -8.76 5 -4 5 C-4 5.33 -4 5.66 -4 6 C-8.62 6.33 -13.24 6.66 -18 7 C-17.34 7.66 -16.68 8.32 -16 9 C-15.01 10.485 -15.01 10.485 -14 12 C-14.99 12.33 -15.98 12.66 -17 13 C-18.67277835 11.21371169 -20.33824443 9.4214925 -22 7.625 C-22.71542969 6.86316406 -22.71542969 6.86316406 -23.4453125 6.0859375 C-27 2.2265625 -27 2.2265625 -27 0 C-22.87536584 -0.19622046 -18.75028427 -0.38050216 -14.625 -0.5625 C-13.449375 -0.61857422 -12.27375 -0.67464844 -11.0625 -0.73242188 C-9.94101562 -0.78076172 -8.81953125 -0.82910156 -7.6640625 -0.87890625 C-6.10872803 -0.94960327 -6.10872803 -0.94960327 -4.52197266 -1.02172852 C-2 -1 -2 -1 0 0 Z " fill="#696B6F" transform="translate(61,48)"/>
<path d="M0 0 C1.125 3.75 1.125 3.75 0 6 C-1.97888961 6.72693904 -3.97954558 7.39816251 -6 8 C-5.67 10.97 -5.34 13.94 -5 17 C-8.3125 16.8125 -8.3125 16.8125 -12 16 C-14.30905417 13.31851774 -14.95257576 11.71136356 -15.1875 8.1875 C-15.125625 7.465625 -15.06375 6.74375 -15 6 C-14.12988281 5.85304688 -14.12988281 5.85304688 -13.2421875 5.703125 C-7.90353568 4.68120485 -4.31114768 3.31626744 0 0 Z " fill="#EAEAEA" transform="translate(357,50)"/>
<path d="M0 0 C2.125 0.375 2.125 0.375 4 1 C3.8848388 5.71114015 3.70311254 9.70735847 0.6875 13.5 C-1.90813677 15.91454583 -2.72117604 16.38478356 -6 17 C-5.60763388 10.03211898 -5.12487711 5.12487711 0 0 Z " fill="#EEEEEE" transform="translate(348,38)"/>
<path d="M0 0 C0.28971178 5.60109448 0.15976306 9.14750673 -3 14 C-6.3 17 -6.3 17 -9 17 C-9.65153269 10.7452862 -8.84717523 6.75802745 -5.484375 1.43359375 C-4 0 -4 0 0 0 Z " fill="#EFEFF0" transform="translate(153,38)"/>
<path d="M0 0 C1.21236328 0.01353516 1.21236328 0.01353516 2.44921875 0.02734375 C3.37154297 0.04474609 3.37154297 0.04474609 4.3125 0.0625 C4.9725 1.3825 5.6325 2.7025 6.3125 4.0625 C5.6525 4.7225 4.9925 5.3825 4.3125 6.0625 C3.879375 5.5675 3.44625 5.0725 3 4.5625 C1.31509517 2.73031808 1.31509517 2.73031808 -1.6875 3.0625 C-2.120625 4.5165625 -2.120625 4.5165625 -2.5625 6 C-3.6875 9.0625 -3.6875 9.0625 -5.6875 10.0625 C-7.68710012 10.102492 -9.68797242 10.10596799 -11.6875 10.0625 C-12.0175 8.4125 -12.3475 6.7625 -12.6875 5.0625 C-8.37302626 1.44767065 -5.63913023 -0.08172653 0 0 Z " fill="#666769" transform="translate(211.6875,35.9375)"/>
<path d="M0 0 C1.65 0.33 3.3 0.66 5 1 C4.67 2.32 4.34 3.64 4 5 C4.73524902 4.99476318 5.47049805 4.98952637 6.22802734 4.98413086 C9.61034261 4.96314084 12.9926441 4.95027049 16.375 4.9375 C17.53128906 4.92912109 18.68757813 4.92074219 19.87890625 4.91210938 C26.65400559 4.89297068 33.27639726 5.14777999 40 6 C40 6.66 40 7.32 40 8 C18.22 7.505 18.22 7.505 -4 7 C-3.01 5.35 -2.02 3.7 -1 2 C-0.67 1.34 -0.34 0.68 0 0 Z " fill="#E6F7FC" transform="translate(12,22)"/>
<path d="M0 0 C0.99 0 1.98 0 3 0 C3.20912548 12.96577947 3.20912548 12.96577947 2 19 C0.66666667 20.33333333 -0.66666667 21.66666667 -2 23 C-2.99 22.01 -3.98 21.02 -5 20 C-5.66 20.33 -6.32 20.66 -7 21 C-7 19.02 -7 17.04 -7 15 C-6.34 14.67 -5.68 14.34 -5 14 C-4.01 15.485 -4.01 15.485 -3 17 C-2.34 17 -1.68 17 -1 17 C-1.66 16.34 -2.32 15.68 -3 15 C-3.75 13.0625 -3.75 13.0625 -4 11 C-3.34 10.01 -2.68 9.02 -2 8 C-1.34 8 -0.68 8 0 8 C0.12794628 5.11698792 0.12794628 5.11698792 -0.5625 2.875 C-0.706875 2.25625 -0.85125 1.6375 -1 1 C-0.67 0.67 -0.34 0.34 0 0 Z " fill="#545558" transform="translate(308,41)"/>
<path d="M0 0 C5.75 0.75 5.75 0.75 8 3 C8.52941176 11.20588235 8.52941176 11.20588235 6 15 C3.69 15 1.38 15 -1 15 C-0.67 14.34 -0.34 13.68 0 13 C0.07092842 10.7927077 0.08415025 8.58332548 0.0625 6.375 C0.05347656 5.18648437 0.04445313 3.99796875 0.03515625 2.7734375 C0.02355469 1.85820312 0.01195312 0.94296875 0 0 Z " fill="#176FB8" transform="translate(271,29)"/>
<path d="M0 0 C2.75052243 2.49818092 4.59122897 5.29964524 6.5625 8.4375 C7.16191406 9.38496094 7.76132812 10.33242188 8.37890625 11.30859375 C10 14 10 14 12 18 C6.72 18 1.44 18 -4 18 C-4.33 14.7 -4.66 11.4 -5 8 C-4.01 8.495 -4.01 8.495 -3 9 C-3 10.65 -3 12.3 -3 14 C-2.34 14 -1.68 14 -1 14 C-1 14.66 -1 15.32 -1 16 C0.32 16 1.64 16 3 16 C4.2546152 12.2361544 3.49664142 11.063898 2.0625 7.4375 C0 2.17288136 0 2.17288136 0 0 Z " fill="#2C72AB" transform="translate(270,50)"/>
<path d="M0 0 C1.65 0 3.3 0 5 0 C5.33 0.66 5.66 1.32 6 2 C5.3503125 3.3921875 5.3503125 3.3921875 4.6875 4.8125 C2.18074991 10.21696121 1.74820765 16.14637547 1 22 C2.60407328 22.02708567 4.2082785 22.04643483 5.8125 22.0625 C7.15248047 22.07990234 7.15248047 22.07990234 8.51953125 22.09765625 C11.13413791 22.11009967 11.13413791 22.11009967 14 21 C14 21.66 14 22.32 14 23 C12.68 23.33 11.36 23.66 10 24 C10.66 26.31 11.32 28.62 12 31 C11.34 31.66 10.68 32.32 10 33 C9.76925781 32.36191406 9.53851563 31.72382812 9.30078125 31.06640625 C8.97464844 30.24011719 8.64851563 29.41382812 8.3125 28.5625 C7.99925781 27.73878906 7.68601562 26.91507813 7.36328125 26.06640625 C6.91339844 25.38449219 6.46351563 24.70257813 6 24 C4.35 23.67 2.7 23.34 1 23 C1 26.96 1 30.92 1 35 C0.67 35 0.34 35 0 35 C0 23.45 0 11.9 0 0 Z " fill="#3170A6" transform="translate(254,25)"/>
<path d="M0 0 C0.28643366 5.53771745 0.24524216 9.24803827 -3 14 C-5.125 14.9375 -5.125 14.9375 -7 15 C-8.55985209 13.44014791 -8.24452344 11.91093902 -8.3125 9.75 C-8.27377419 6.28127421 -8.03128367 5.05474643 -6.25 1.9375 C-4 0 -4 0 0 0 Z " fill="#F1F2F2" transform="translate(213,50)"/>
<path d="M0 0 C4.23792063 0.02428608 6.8492993 0.52943944 10.25 3.25 C9.92 4.57 9.59 5.89 9.25 7.25 C7.6 7.58 5.95 7.91 4.25 8.25 C4.25 7.26 4.25 6.27 4.25 5.25 C2.93 5.58 1.61 5.91 0.25 6.25 C1.24 6.25 2.23 6.25 3.25 6.25 C3.25 6.91 3.25 7.57 3.25 8.25 C0.28 7.92 -2.69 7.59 -5.75 7.25 C-6.08 6.26 -6.41 5.27 -6.75 4.25 C-5.76 4.25 -4.77 4.25 -3.75 4.25 C-3.75 3.59 -3.75 2.93 -3.75 2.25 C-4.41 1.92 -5.07 1.59 -5.75 1.25 C-4.11069007 -0.38930993 -2.25256326 0.03998633 0 0 Z " fill="#5A5B5E" transform="translate(180.75,60.75)"/>
<path d="M0 0 C2.22808159 -0.10853983 4.45769932 -0.18583307 6.6875 -0.25 C7.92886719 -0.29640625 9.17023438 -0.3428125 10.44921875 -0.390625 C14.56973034 0.0626766 16.10322881 1.1085932 19 4 C20.0625 5.9375 20.0625 5.9375 20 8 C18.0625 10.75 18.0625 10.75 16 13 C14.68 12.34 13.36 11.68 12 11 C12.185625 9.865625 12.37125 8.73125 12.5625 7.5625 C12.706875 6.386875 12.85125 5.21125 13 4 C11.97448273 2.74552282 11.97448273 2.74552282 9.78515625 2.9375 C7.97265488 2.97910692 6.16015487 3.02077341 4.34765625 3.0625 C2 3 2 3 0 2 C0 1.34 0 0.68 0 0 Z " fill="#E5E5E7" transform="translate(168,69)"/>
<path d="M0 0 C3.06243607 1.02081202 4.14657225 1.44050454 6 4 C6.1875 7.1875 6.1875 7.1875 6 10 C5.01 10.33 4.02 10.66 3 11 C3 11.66 3 12.32 3 13 C0 15 0 15 -3 15 C-3 13.02 -3 11.04 -3 9 C-2.01 9 -1.02 9 0 9 C-0.185625 7.88625 -0.37125 6.7725 -0.5625 5.625 C-1 2 -1 2 0 0 Z " fill="#1E6FB0" transform="translate(125,30)"/>
<path d="M0 0 C1.32 0 2.64 0 4 0 C3.95359375 0.65226562 3.9071875 1.30453125 3.859375 1.9765625 C3.60733435 8.07954686 4.03942021 11.2968115 8 16 C7.21625 16.20625 6.4325 16.4125 5.625 16.625 C2.68861556 17.78871514 2.68861556 17.78871514 1.875 21.0625 C1.58625 22.031875 1.2975 23.00125 1 24 C0.01 24.33 -0.98 24.66 -2 25 C-2 21.38970831 -1.03907418 18.44193324 0 15 C-0.66 14.67 -1.32 14.34 -2 14 C-1.34 13.01 -0.68 12.02 0 11 C0.66 11 1.32 11 2 11 C1.67 9.02 1.34 7.04 1 5 C0.67 5 0.34 5 0 5 C0 3.35 0 1.7 0 0 Z " fill="#E5E5E7" transform="translate(161,42)"/>
<path d="M0 0 C6.52307692 0.61538462 6.52307692 0.61538462 8.9375 2.5625 C9.288125 3.036875 9.63875 3.51125 10 4 C8.63029745 6.95012857 7.17390875 9.5652222 5 12 C4.01 12 3.02 12 2 12 C1.34 8.04 0.68 4.08 0 0 Z " fill="#5A5B5F" transform="translate(182,37)"/>
<path d="M0 0 C1.65 0 3.3 0 5 0 C3.68 0.33 2.36 0.66 1 1 C1.33 7.27 1.66 13.54 2 20 C-2.29 20 -6.58 20 -11 20 C-11.1875 16.625 -11.1875 16.625 -11 13 C-10.01 12.34 -9.02 11.68 -8 11 C-8 13.31 -8 15.62 -8 18 C-6.02 18 -4.04 18 -2 18 C-0.81304447 14.43913342 -0.64904582 11.02668976 -0.4375 7.3125 C-0.39431641 6.61060547 -0.35113281 5.90871094 -0.30664062 5.18554688 C-0.2008264 3.45724794 -0.09993419 1.7286489 0 0 Z " fill="#487BAA" transform="translate(255,48)"/>
<path d="M0 0 C2.86724686 0.57344937 3.8614515 0.8614515 6 3 C6.125 6.625 6.125 6.625 6 10 C5.01 10.495 5.01 10.495 4 11 C3.34 10.67 2.68 10.34 2 10 C-0.00957058 10.03189795 -2.01971076 10.06634162 -4.02734375 10.16015625 C-6 10 -6 10 -9 8 C-7.88625 7.79375 -6.7725 7.5875 -5.625 7.375 C-1.73400805 6.38371699 -1.73400805 6.38371699 -0.5625 2.875 C-0.376875 1.92625 -0.19125 0.9775 0 0 Z " fill="#E5E6E7" transform="translate(210,38)"/>
<path d="M0 0 C0.33 0 0.66 0 1 0 C1.33 2.31 1.66 4.62 2 7 C3.32 7.33 4.64 7.66 6 8 C6.66 6.68 7.32 5.36 8 4 C8.66 5.98 9.32 7.96 10 10 C8.46279297 10.09087891 8.46279297 10.09087891 6.89453125 10.18359375 C5.53384305 10.26805026 4.17316657 10.35269567 2.8125 10.4375 C2.13896484 10.47681641 1.46542969 10.51613281 0.77148438 10.55664062 C-2.89699102 10.78927565 -6.41694206 11.17207011 -10 12 C-8.46270661 10.46270661 -6.93805263 8.94493567 -5.3125 7.5 C-3.6707477 5.95590371 -3.6707477 5.95590371 -4 3 C-3.01 3 -2.02 3 -1 3 C-0.67 2.01 -0.34 1.02 0 0 Z " fill="#69696B" transform="translate(173,49)"/>
<path d="M0 0 C0.99 0.33 1.98 0.66 3 1 C3.33 1.99 3.66 2.98 4 4 C4.99 4.33 5.98 4.66 7 5 C7.75 6.9375 7.75 6.9375 8 9 C7.67 9.66 7.34 10.32 7 11 C1.375 11.25 1.375 11.25 -2 9 C-2.6875 5.375 -2.6875 5.375 -3 2 C-2.01 2 -1.02 2 0 2 C0 1.34 0 0.68 0 0 Z " fill="#1A71BA" transform="translate(42,77)"/>
<path d="M0 0 C3.96048221 3.72045298 7.19867585 7.75609803 10.44921875 12.109375 C11.87182968 14.10588458 11.87182968 14.10588458 14 15 C14 15.66 14 16.32 14 17 C9.38 17 4.76 17 0 17 C0 16.34 0 15.68 0 15 C2.31 15 4.62 15 7 15 C7 13.02 7 11.04 7 9 C5.68 8.67 4.36 8.34 3 8 C3 7.01 3 6.02 3 5 C2.34 5 1.68 5 1 5 C0.67 3.35 0.34 1.7 0 0 Z " fill="#4982AA" transform="translate(42,73)"/>
<path d="M0 0 C4.31226745 -0.11719343 8.62411934 -0.18758416 12.9375 -0.25 C14.75604492 -0.30027344 14.75604492 -0.30027344 16.61132812 -0.3515625 C24.0480437 -0.4321773 29.52565415 0.26250659 36 4 C36.66 4.33 37.32 4.66 38 5 C38 8.63 38 12.26 38 16 C37.67 16 37.34 16 37 16 C36.773125 14.948125 36.54625 13.89625 36.3125 12.8125 C35.15967909 8.80198218 33.26133061 6.65457143 30 4 C26.27264647 2.19637791 23.16410929 1.71274182 19.04296875 1.5859375 C17.93115234 1.54726563 16.81933594 1.50859375 15.67382812 1.46875 C14.52333984 1.4378125 13.37285156 1.406875 12.1875 1.375 C11.01767578 1.33632813 9.84785156 1.29765625 8.64257812 1.2578125 C5.76187436 1.1637487 2.88117346 1.07810123 0 1 C0 0.67 0 0.34 0 0 Z " fill="#DFF3FC" transform="translate(96,23)"/>
<path d="M0 0 C6.78082192 5.42465753 6.78082192 5.42465753 9 9 C9 9.66 9 10.32 9 11 C2.73 11 -3.54 11 -10 11 C-10 10.67 -10 10.34 -10 10 C-5.545 9.505 -5.545 9.505 -1 9 C-0.67 8.01 -0.34 7.02 0 6 C0.33 6 0.66 6 1 6 C0.67 4.02 0.34 2.04 0 0 Z " fill="#717171" transform="translate(78,79)"/>
<path d="M0 0 C2 0 2 0 4.125 1.375 C6.96841605 5.35578248 6.32581856 9.25752987 6 14 C1.125 13.125 1.125 13.125 0 12 C-0.07244053 9.98035801 -0.08377188 7.95832876 -0.0625 5.9375 C-0.05347656 4.83277344 -0.04445313 3.72804687 -0.03515625 2.58984375 C-0.02355469 1.73519531 -0.01195313 0.88054688 0 0 Z " fill="#F5F7F9" transform="translate(109,52)"/>
<path d="M0 0 C0.66 0 1.32 0 2 0 C2.66 1.65 3.32 3.3 4 5 C2.68 6.32 1.36 7.64 0 9 C1.65 9 3.3 9 5 9 C5 9.66 5 10.32 5 11 C1.04 11 -2.92 11 -7 11 C-7 10.34 -7 9.68 -7 9 C-6.34 9 -5.68 9 -5 9 C-5 8.01 -5 7.02 -5 6 C-4.34 6 -3.68 6 -3 6 C-2.67 5.01 -2.34 4.02 -2 3 C-1.34 2.01 -0.68 1.02 0 0 Z " fill="#525558" transform="translate(235,57)"/>
<path d="M0 0 C0.99 0 1.98 0 3 0 C3 3.3 3 6.6 3 10 C0.69 10 -1.62 10 -4 10 C-4.8125 8.375 -4.8125 8.375 -5 6 C-2.75 2.75 -2.75 2.75 0 0 Z " fill="#1671C4" transform="translate(102,56)"/>
<path d="M0 0 C2.4375 1.5 2.4375 1.5 4 3 C3.38511719 2.96519531 2.77023437 2.93039063 2.13671875 2.89453125 C0.92435547 2.85392578 0.92435547 2.85392578 -0.3125 2.8125 C-1.11300781 2.77769531 -1.91351563 2.74289063 -2.73828125 2.70703125 C-5.05829913 2.81565832 -5.05829913 2.81565832 -6.73046875 4.32421875 C-8.20745641 6.08769084 -8.20745641 6.08769084 -9 9 C-10.65 8.67 -12.3 8.34 -14 8 C-14 7.34 -14 6.68 -14 6 C-14.66 5.67 -15.32 5.34 -16 5 C-10.39301547 1.13741066 -6.89194293 -0.48364512 0 0 Z " fill="#5F6061" transform="translate(353,36)"/>
<path d="M0 0 C2.475 0.99 2.475 0.99 5 2 C5 4.64 5 7.28 5 10 C4.01 10.33 3.02 10.66 2 11 C1.01 10.01 0.02 9.02 -1 8 C-1.33 8.66 -1.66 9.32 -2 10 C-2.6875 8.375 -2.6875 8.375 -3 6 C-1.5625 2.75 -1.5625 2.75 0 0 Z " fill="#545456" transform="translate(156,38)"/>
<path d="M0 0 C0.70125 0.00515625 1.4025 0.0103125 2.125 0.015625 C2.82625 0.01046875 3.5275 0.0053125 4.25 0 C6.125 0.265625 6.125 0.265625 8.125 2.265625 C7.75 4.390625 7.75 4.390625 7.125 6.265625 C6.135 5.935625 5.145 5.605625 4.125 5.265625 C4.125 5.925625 4.125 6.585625 4.125 7.265625 C3.135 6.935625 2.145 6.605625 1.125 6.265625 C0.135 6.265625 -0.855 6.265625 -1.875 6.265625 C-2.535 4.945625 -3.195 3.625625 -3.875 2.265625 C-1.875 0.265625 -1.875 0.265625 0 0 Z " fill="#565657" transform="translate(182.875,26.734375)"/>
<path d="M0 0 C6.875 1.875 6.875 1.875 8 3 C8.04080783 4.99958364 8.04254356 7.00045254 8 9 C7.01 9.495 7.01 9.495 6 10 C5.34 9.34 4.68 8.68 4 8 C2.68 8 1.36 8 0 8 C0 5.36 0 2.72 0 0 Z " fill="#585858" transform="translate(352,38)"/>
<path d="M0 0 C1.98 0 3.96 0 6 0 C6 1.32 6 2.64 6 4 C5.01 4 4.02 4 3 4 C3.33 5.32 3.66 6.64 4 8 C3.34 8 2.68 8 2 8 C2.33 9.65 2.66 11.3 3 13 C0.36 13.66 -2.28 14.32 -5 15 C-5.33 13.35 -5.66 11.7 -6 10 C-3.69 10.33 -1.38 10.66 1 11 C0.67 7.37 0.34 3.74 0 0 Z " fill="#646669" transform="translate(319,26)"/>
<path d="M0 0 C0.66 0 1.32 0 2 0 C3.35439668 2.70879335 3.06501451 5.00933268 3 8 C2.34 8 1.68 8 1 8 C1.66 9.32 2.32 10.64 3 12 C0 11 0 11 -1.4375 8.5 C-2.74552024 5.84127915 -2.74552024 5.84127915 -5.1875 5.1875 C-5.785625 5.125625 -6.38375 5.06375 -7 5 C-7 3.68 -7 2.36 -7 1 C-6.34 1 -5.68 1 -5 1 C-5 1.66 -5 2.32 -5 3 C-3.02463255 2.65213292 -3.02463255 2.65213292 -1 2 C-0.67 1.34 -0.34 0.68 0 0 Z " fill="#1D71AF" transform="translate(29,61)"/>
<path d="M0 0 C1.32 0.33 2.64 0.66 4 1 C4.33 2.98 4.66 4.96 5 7 C5.99 7.33 6.98 7.66 8 8 C7.67 8.66 7.34 9.32 7 10 C8.32 10.33 9.64 10.66 11 11 C11 12.65 11 14.3 11 16 C6.45464825 12.79151641 2.75326688 8.84423588 0 4 C0 2.68 0 1.36 0 0 Z " fill="#3275A4" transform="translate(11,49)"/>
<path d="M0 0 C0.33 0.66 0.66 1.32 1 2 C0.3125 4.0625 0.3125 4.0625 -1 6 C-3.125 6.75 -3.125 6.75 -5 7 C-5 6.34 -5 5.68 -5 5 C-6.97536745 5.34786708 -6.97536745 5.34786708 -9 6 C-9.33 6.66 -9.66 7.32 -10 8 C-10.99 8 -11.98 8 -13 8 C-13.33 8.66 -13.66 9.32 -14 10 C-14.33 8.02 -14.66 6.04 -15 4 C-11.94242368 2.21292343 -9.8936518 1.81171094 -6.375 2 C-4.07776501 2.16713497 -4.07776501 2.16713497 -2 2 C-1.34 1.34 -0.68 0.68 0 0 Z " fill="#F2F6F8" transform="translate(297,29)"/>
<path d="M0 0 C5 1 5 1 7 2 C7.625 5.0625 7.625 5.0625 8 8 C6.35 6.68 4.7 5.36 3 4 C3 6.97 3 9.94 3 13 C2.01 13 1.02 13 0 13 C0 8.71 0 4.42 0 0 Z " fill="#2D71A8" transform="translate(122,26)"/>
<path d="M0 0 C0.33 0 0.66 0 1 0 C1.33 3.3 1.66 6.6 2 10 C7.28 10 12.56 10 18 10 C16.68 10.33 15.36 10.66 14 11 C13.67 11.66 13.34 12.32 13 13 C11.22844346 12.88570603 9.45773771 12.75816963 7.6875 12.625 C6.20830078 12.52058594 6.20830078 12.52058594 4.69921875 12.4140625 C2 12 2 12 -1 10 C-0.67 6.7 -0.34 3.4 0 0 Z " fill="#E5F9FD" transform="translate(264,58)"/>
<path d="M0 0 C0.33 0 0.66 0 1 0 C0.98839844 0.98742187 0.97679688 1.97484375 0.96484375 2.9921875 C0.95582031 4.27351563 0.94679688 5.55484375 0.9375 6.875 C0.92589844 8.15117188 0.91429688 9.42734375 0.90234375 10.7421875 C0.76823431 13.88664652 0.76823431 13.88664652 2 16 C3.98 16 5.96 16 8 16 C7.67 16.66 7.34 17.32 7 18 C4.03 18 1.06 18 -2 18 C-2.3690205 5.33029613 -2.3690205 5.33029613 0 0 Z " fill="#D1E9F7" transform="translate(109,29)"/>
<path d="M0 0 C0.66 0.33 1.32 0.66 2 1 C1.01 2.485 1.01 2.485 0 4 C-0.66 4 -1.32 4 -2 4 C-2.66478003 9.6435265 -2.66478003 9.6435265 -0.8515625 14.828125 C0.4254288 16.22505471 1.71214506 17.61307929 3 19 C2.67 19.99 2.34 20.98 2 22 C1.01830524 20.87720538 0.03972702 19.75168527 -0.9375 18.625 C-1.48277344 17.99851562 -2.02804688 17.37203125 -2.58984375 16.7265625 C-5.45439203 13.21927624 -5.23057154 10.45771645 -5 6 C-3.81232145 2.61968411 -3.10174775 2.06783183 0 0 Z " fill="#4A7DA2" transform="translate(8,30)"/>
<path d="M0 0 C5.625 -0.25 5.625 -0.25 9 2 C9.375 4.4375 9.375 4.4375 9 7 C7.76953125 8.6484375 7.76953125 8.6484375 6 10 C3.73828125 10.29296875 3.73828125 10.29296875 1.3125 10.1875 C0.10013672 10.14689453 0.10013672 10.14689453 -1.13671875 10.10546875 C-1.75160156 10.07066406 -2.36648438 10.03585938 -3 10 C-3.33 9.34 -3.66 8.68 -4 8 C-1.03 8 1.94 8 5 8 C4.67 5.69 4.34 3.38 4 1 C2.68 0.67 1.36 0.34 0 0 Z " fill="#666667" transform="translate(289,22)"/>
<path d="M0 0 C1.75 2.5 1.75 2.5 3 5 C0.69 4.67 -1.62 4.34 -4 4 C-4.33 4.99 -4.66 5.98 -5 7 C-4.01 7 -3.02 7 -2 7 C-2 8.32 -2 9.64 -2 11 C-3.65 11 -5.3 11 -7 11 C-7.75 7.75 -7.75 7.75 -8 4 C-5.4290032 0.28633796 -4.62243872 0 0 0 Z " fill="#F5F9F9" transform="translate(266,27)"/>
<path d="M0 0 C2.475 0.495 2.475 0.495 5 1 C4.54939339 3.10583487 4.08924044 5.20962872 3.625 7.3125 C3.36976563 8.48425781 3.11453125 9.65601563 2.8515625 10.86328125 C2 14 2 14 0 17 C0 11.39 0 5.78 0 0 Z " fill="#EEEEEE" transform="translate(330,44)"/>
<path d="M0 0 C10.89 0 21.78 0 33 0 C33 0.33 33 0.66 33 1 C23.76 1.33 14.52 1.66 5 2 C5 3.65 5 5.3 5 7 C3.29115995 5.37660195 1.62553283 3.70680947 0 2 C0 1.34 0 0.68 0 0 Z " fill="#D2E9FA" transform="translate(15,40)"/>
<path d="M0 0 C2.10814567 4.21629134 2.17700355 6.39790775 2 11 C-4.65637843 12.23839599 -11.2471936 12.09139136 -18 12 C-18 11.67 -18 11.34 -18 11 C-14.04 11 -10.08 11 -6 11 C-5.67 9.68 -5.34 8.36 -5 7 C-2.525 7.99 -2.525 7.99 0 9 C0 6.03 0 3.06 0 0 Z " fill="#E0F3FB" transform="translate(115,57)"/>
<path d="M0 0 C0 1.32 0 2.64 0 4 C1.32 4.99 2.64 5.98 4 7 C0.7 7 -2.6 7 -6 7 C-6 6.01 -6 5.02 -6 4 C-6.3062434 2.66018514 -6.63451555 1.32488113 -7 0 C-3.86650268 -1.04449911 -3.01031744 -0.93423645 0 0 Z " fill="#69686D" transform="translate(176,62)"/>
<path d="M0 0 C1.4540625 0.0309375 1.4540625 0.0309375 2.9375 0.0625 C3.31968767 1.71864657 3.65145102 3.38707024 3.9375 5.0625 C3.6075 5.3925 3.2775 5.7225 2.9375 6.0625 C3.5975 6.0625 4.2575 6.0625 4.9375 6.0625 C4.9375 6.7225 4.9375 7.3825 4.9375 8.0625 C1.9675 7.7325 -1.0025 7.4025 -4.0625 7.0625 C-4.3925 6.0725 -4.7225 5.0825 -5.0625 4.0625 C-4.0725 4.0625 -3.0825 4.0625 -2.0625 4.0625 C-2.0625 3.4025 -2.0625 2.7425 -2.0625 2.0625 C-2.7225 1.7325 -3.3825 1.4025 -4.0625 1.0625 C-3.0625 0.0625 -3.0625 0.0625 0 0 Z " fill="#535457" transform="translate(179.0625,60.9375)"/>
<path d="M0 0 C1.32 0 2.64 0 4 0 C4.33 0.66 4.66 1.32 5 2 C6.32 2 7.64 2 9 2 C10.35439668 4.70879335 10.06501451 7.00933268 10 10 C10.99 10.33 11.98 10.66 13 11 C12.01 11.33 11.02 11.66 10 12 C8.33032474 10.19019128 6.66417692 8.3773524 5 6.5625 C4.28457031 5.7880957 4.28457031 5.7880957 3.5546875 4.99804688 C0 1.11328125 0 1.11328125 0 0 Z " fill="#E1F1F7" transform="translate(36,66)"/>
<path d="M0 0 C3.71599191 -0.20086443 4.77208445 -0.1519437 8 2 C7.67 3.65 7.34 5.3 7 7 C3.75791433 6.64950425 2.38472296 6.43778819 0.1875 3.9375 C-0.4003125 2.9784375 -0.4003125 2.9784375 -1 2 C-0.67 1.34 -0.34 0.68 0 0 Z " fill="#1772BC" transform="translate(114,48)"/>
<path d="M0 0 C1.0625 1.8125 1.0625 1.8125 2 4 C1.67 4.99 1.34 5.98 1 7 C0.01 7 -0.98 7 -2 7 C-2.33 8.32 -2.66 9.64 -3 11 C-3 9.02 -3 7.04 -3 5 C-5.64 4.67 -8.28 4.34 -11 4 C-11 3.34 -11 2.68 -11 2 C-4.375 1.875 -4.375 1.875 -1 3 C-0.67 2.01 -0.34 1.02 0 0 Z " fill="#67666A" transform="translate(216,45)"/>
<path d="M0 0 C0.66 0.99 1.32 1.98 2 3 C1.34 3 0.68 3 0 3 C-0.33 3.99 -0.66 4.98 -1 6 C-4.6441774 8.4294516 -6.71241272 8.16179575 -11 8 C-11 7.34 -11 6.68 -11 6 C-8.21921393 4.14614262 -6.11894399 3.23037082 -2.875 2.5625 C-2.25625 2.376875 -1.6375 2.19125 -1 2 C-0.67 1.34 -0.34 0.68 0 0 Z " fill="#636464" transform="translate(211,61)"/>
<path d="M0 0 C1.79672498 2.69508748 2.35821579 3.97444588 3 7 C3.185625 7.7425 3.37125 8.485 3.5625 9.25 C3.7790625 10.11625 3.7790625 10.11625 4 11 C2.35 11 0.7 11 -1 11 C-1.33 10.01 -1.66 9.02 -2 8 C-2.65129797 6.65909241 -3.31513275 5.32407669 -4 4 C-3.34 3.67 -2.68 3.34 -2 3 C-1.67 2.34 -1.34 1.68 -1 1 C-0.67 0.67 -0.34 0.34 0 0 Z " fill="#555557" transform="translate(326,57)"/>
<path d="M0 0 C0.66 0 1.32 0 2 0 C2 0.66 2 1.32 2 2 C6.62 2 11.24 2 16 2 C16 2.33 16 2.66 16 3 C11.38 3.33 6.76 3.66 2 4 C2.66 4.66 3.32 5.32 4 6 C4.99 7.485 4.99 7.485 6 9 C5.01 9.33 4.02 9.66 3 10 C0.9375 8.375 0.9375 8.375 -1 6 C-0.75 2.75 -0.75 2.75 0 0 Z " fill="#616367" transform="translate(41,51)"/>
<path d="M0 0 C3 1 3 1 5 4 C5.125 6.6875 5.125 6.6875 5 9 C3.02 8.34 1.04 7.68 -1 7 C-0.67 4.69 -0.34 2.38 0 0 Z " fill="#1772C0" transform="translate(125,30)"/>
<path d="M0 0 C0.8971875 1.1446875 0.8971875 1.1446875 1.8125 2.3125 C3.84004112 4.91335259 3.84004112 4.91335259 5.75 6.6875 C7 8 7 8 7 10 C1.72 10 -3.56 10 -9 10 C-8.67 9.01 -8.34 8.02 -8 7 C-7.67 7.33 -7.34 7.66 -7 8 C-5.31816052 8.23287008 -3.6287584 8.41264166 -1.9375 8.5625 C-1.01839844 8.64628906 -0.09929687 8.73007813 0.84765625 8.81640625 C1.55792969 8.87699219 2.26820313 8.93757813 3 9 C2.67 7.35 2.34 5.7 2 4 C1.34 4 0.68 4 0 4 C0 2.68 0 1.36 0 0 Z " fill="#3F7098" transform="translate(275,58)"/>
<path d="M0 0 C0.99 0.33 1.98 0.66 3 1 C1.63029745 3.95012857 0.17390875 6.5652222 -2 9 C-2.99 9 -3.98 9 -5 9 C-4.67 7.02 -4.34 5.04 -4 3 C-3.34 3 -2.68 3 -2 3 C-1.67 2.34 -1.34 1.68 -1 1 C-0.67 0.67 -0.34 0.34 0 0 Z " fill="#545559" transform="translate(189,40)"/>
<path d="M0 0 C1.09570312 0.00902344 2.19140625 0.01804688 3.3203125 0.02734375 C4.16335937 0.03894531 5.00640625 0.05054688 5.875 0.0625 C5.875 0.7225 5.875 1.3825 5.875 2.0625 C4.1258503 2.40026684 2.37563855 2.73253671 0.625 3.0625 C-0.83679688 3.3409375 -0.83679688 3.3409375 -2.328125 3.625 C-5.125 4.0625 -5.125 4.0625 -9.125 4.0625 C-8.795 3.0725 -8.465 2.0825 -8.125 1.0625 C-5.36047967 -0.31976016 -3.0788637 -0.03275387 0 0 Z " fill="#E7E7EB" transform="translate(174.125,58.9375)"/>
<path d="M0 0 C2 1.25 2 1.25 4 3 C4 4.32 4 5.64 4 7 C3.34 7 2.68 7 2 7 C2 7.66 2 8.32 2 9 C1.01 9 0.02 9 -1 9 C-1.80967438 6.08517222 -2.21845993 4.53886783 -1.0625 1.6875 C-0.711875 1.130625 -0.36125 0.57375 0 0 Z " fill="#58585B" transform="translate(218,38)"/>
<path d="M0 0 C1.32 0.66 2.64 1.32 4 2 C4.28571429 10.57142857 4.28571429 10.57142857 2 14 C-0.31 14 -2.62 14 -5 14 C-4.67 13.34 -4.34 12.68 -4 12 C-2.35 12.33 -0.7 12.66 1 13 C1.02708567 11.39592672 1.04643483 9.7917215 1.0625 8.1875 C1.07410156 7.29417969 1.08570313 6.40085937 1.09765625 5.48046875 C1.11009967 2.86586209 1.11009967 2.86586209 0 0 Z " fill="#2170B4" transform="translate(275,30)"/>
<path d="M0 0 C0.33 0.66 0.66 1.32 1 2 C1.99 1.67 2.98 1.34 4 1 C4 7.93 4 14.86 4 22 C3.67 22 3.34 22 3 22 C2.92652344 20.39318359 2.92652344 20.39318359 2.8515625 18.75390625 C2.77654706 17.35674361 2.7009987 15.9596095 2.625 14.5625 C2.5940625 13.85544922 2.563125 13.14839844 2.53125 12.41992188 C2.42719371 10.60760812 2.22080108 8.80182012 2 7 C1.34 6.67 0.68 6.34 0 6 C-0.6875 3.5 -0.6875 3.5 -1 1 C-0.67 0.67 -0.34 0.34 0 0 Z " fill="#757578" transform="translate(326,30)"/>
<path d="M0 0 C0.33 0.66 0.66 1.32 1 2 C3.02463255 2.65213292 3.02463255 2.65213292 5 3 C3.68 3.33 2.36 3.66 1 4 C1 4.99 1 5.98 1 7 C0.34 7.66 -0.32 8.32 -1 9 C-1.99 8.67 -2.98 8.34 -4 8 C-4 6.35 -4 4.7 -4 3 C-2.68 2.67 -1.36 2.34 0 2 C0 1.34 0 0.68 0 0 Z " fill="#535454" transform="translate(141,53)"/>
<path d="M0 0 C0.66 0 1.32 0 2 0 C2 0.66 2 1.32 2 2 C2.66 2.33 3.32 2.66 4 3 C4.99 4.485 4.99 4.485 6 6 C5 7 5 7 1.9375 7.0625 C0.968125 7.041875 -0.00125 7.02125 -1 7 C-1.625 4.625 -1.625 4.625 -2 2 C-1.34 1.34 -0.68 0.68 0 0 Z " fill="#5C5D5F" transform="translate(201,39)"/>
<path d="M0 0 C2 1.8125 2 1.8125 4 4 C4 4.99 4 5.98 4 7 C2.68 7 1.36 7 0 7 C-0.33 7.66 -0.66 8.32 -1 9 C-2.32 8.67 -3.64 8.34 -5 8 C-4.01 7.67 -3.02 7.34 -2 7 C-1.855625 6.030625 -1.71125 5.06125 -1.5625 4.0625 C-1 1 -1 1 0 0 Z " fill="#A7A7A9" transform="translate(178,29)"/>
<path d="M0 0 C0.99 0 1.98 0 3 0 C4.125 3.75 4.125 3.75 3 6 C-2.53846154 6.36923077 -2.53846154 6.36923077 -4.875 4.5 C-5.24625 4.005 -5.6175 3.51 -6 3 C-5.38125 2.87625 -4.7625 2.7525 -4.125 2.625 C-1.80879168 2.12802644 -1.80879168 2.12802644 0 0 Z " fill="#2072AE" transform="translate(46,82)"/>
<path d="M0 0 C1.65 0 3.3 0 5 0 C5.33 0.99 5.66 1.98 6 3 C6.66 3 7.32 3 8 3 C8.33 4.65 8.66 6.3 9 8 C6 8 6 8 4 7 C4 6.34 4 5.68 4 5 C2.68 4.67 1.36 4.34 0 4 C0 2.68 0 1.36 0 0 Z " fill="#1776C1" transform="translate(120,58)"/>
<path d="M0 0 C1.65 0.33 3.3 0.66 5 1 C5 4.96 5 8.92 5 13 C4.67 13 4.34 13 4 13 C3.67 9.7 3.34 6.4 3 3 C2.34 3.66 1.68 4.32 1 5 C-1.125 4.625 -1.125 4.625 -3 4 C-2.01 2.68 -1.02 1.36 0 0 Z " fill="#E2E2E4" transform="translate(316,39)"/>
<path d="M0 0 C0.66 0.33 1.32 0.66 2 1 C1.71710528 3.25111973 1.42335307 5.50087686 1.125 7.75 C0.96257812 9.00296875 0.80015625 10.2559375 0.6328125 11.546875 C0.0941645 14.48616408 -0.48008841 16.47107147 -2 19 C-2.11252453 12.89867013 -1.98678883 7.03037619 -1 1 C-0.67 0.67 -0.34 0.34 0 0 Z " fill="#316FA6" transform="translate(107,28)"/>
<path d="M0 0 C2.475 0.99 2.475 0.99 5 2 C5 2.66 5 3.32 5 4 C0.38 4 -4.24 4 -9 4 C-9 3.34 -9 2.68 -9 2 C-6.03 2 -3.06 2 0 2 C0 1.34 0 0.68 0 0 Z " fill="#5D84A1" transform="translate(51,86)"/>
<path d="M0 0 C2.93200474 2.85276137 5.64315404 5.65079784 8 9 C1.25 9.125 1.25 9.125 -1 8 C-0.67 5.36 -0.34 2.72 0 0 Z " fill="#D9E9F2" transform="translate(26,71)"/>
<path d="M0 0 C4.69564393 3.31457218 7.72469104 7.36279281 11 12 C10.34 12 9.68 12 9 12 C8.67 12.66 8.34 13.32 8 14 C7.5875 13.05125 7.175 12.1025 6.75 11.125 C5.34887156 7.91265634 5.34887156 7.91265634 2.875 7 C2.25625 6.67 1.6375 6.34 1 6 C0.25 2.875 0.25 2.875 0 0 Z " fill="#3F78A1" transform="translate(31,61)"/>
<path d="M0 0 C1.65 0 3.3 0 5 0 C5.33 1.32 5.66 2.64 6 4 C5.01 4.66 4.02 5.32 3 6 C3 5.34 3 4.68 3 4 C2.34 4 1.68 4 1 4 C1 6.64 1 9.28 1 12 C0.67 12 0.34 12 0 12 C0 8.04 0 4.08 0 0 Z " fill="#DDF2FB" transform="translate(256,49)"/>
<path d="M0 0 C-1.32 2.31 -2.64 4.62 -4 7 C-4.99 6.67 -5.98 6.34 -7 6 C-7 4.68 -7 3.36 -7 2 C-7.99 1.67 -8.98 1.34 -10 1 C-6.78548731 -0.60725635 -3.56387464 -0.05748185 0 0 Z " fill="#606163" transform="translate(210,48)"/>
<path d="M0 0 C0.33 1.32 0.66 2.64 1 4 C0.34 4 -0.32 4 -1 4 C-1 4.99 -1 5.98 -1 7 C-0.01 7.33 0.98 7.66 2 8 C2 9.65 2 11.3 2 13 C-4 5.8 -4 5.8 -4 1 C-2 0 -2 0 0 0 Z " fill="#DCEFF9" transform="translate(126,46)"/>
<path d="M0 0 C0.33 0 0.66 0 1 0 C1.37634203 6.80203375 0.77471079 11.75690073 -2 18 C-3.5078125 16.62890625 -3.5078125 16.62890625 -5 15 C-4.875 12.9375 -4.875 12.9375 -4 11 C-3.01 10.34 -2.02 9.68 -1 9 C-0.42006301 6.80545319 -0.42006301 6.80545319 -0.3125 4.375 C-0.24675781 3.55773438 -0.18101563 2.74046875 -0.11328125 1.8984375 C-0.07589844 1.27195312 -0.03851563 0.64546875 0 0 Z " fill="#727372" transform="translate(82,30)"/>
<path d="M0 0 C1.62463842 -0.05395478 3.24978541 -0.09277195 4.875 -0.125 C5.77992187 -0.14820312 6.68484375 -0.17140625 7.6171875 -0.1953125 C10 0 10 0 12 2 C11.625 5.125 11.625 5.125 11 8 C10.2265625 6.824375 10.2265625 6.824375 9.4375 5.625 C6.4837677 2.44405752 4.18393452 1.88506307 0 1 C0 0.67 0 0.34 0 0 Z " fill="#4E799F" transform="translate(111,24)"/>
<path d="M0 0 C0.66 3.96 1.32 7.92 2 12 C1.34 12 0.68 12 0 12 C-0.33 11.01 -0.66 10.02 -1 9 C-1.99 9.495 -1.99 9.495 -3 10 C-3 7.03 -3 4.06 -3 1 C-1 0 -1 0 0 0 Z " fill="#616162" transform="translate(330,56)"/>
<path d="M0 0 C0.33 0.66 0.66 1.32 1 2 C0.01 2.495 0.01 2.495 -1 3 C-1.65213292 5.02463255 -1.65213292 5.02463255 -2 7 C-1.34 7 -0.68 7 0 7 C2.125 11.625 2.125 11.625 1 15 C-0.00806851 13.40089132 -1.00620385 11.79551738 -2 10.1875 C-2.556875 9.29417969 -3.11375 8.40085937 -3.6875 7.48046875 C-5 5 -5 5 -5 2 C-3.35 1.34 -1.7 0.68 0 0 Z " fill="#D3EEF9" transform="translate(275,45)"/>
<path d="M0 0 C4.62 0 9.24 0 14 0 C13.67 0.99 13.34 1.98 13 3 C8.71 2.67 4.42 2.34 0 2 C0 1.34 0 0.68 0 0 Z " fill="#ECF9FD" transform="translate(42,90)"/>
<path d="M0 0 C3.12613393 2.96160056 5.04783565 5.09567131 7 9 C3.37 9 -0.26 9 -4 9 C-4 8.67 -4 8.34 -4 8 C-2.02 8 -0.04 8 2 8 C1.34 5.36 0.68 2.72 0 0 Z " fill="#43769D" transform="translate(127,59)"/>
<path d="M0 0 C2.3125 0.1875 2.3125 0.1875 5 1 C6.6875 3.5 6.6875 3.5 8 6 C8.66 6.33 9.32 6.66 10 7 C9.67 7.99 9.34 8.98 9 10 C5.73991357 6.83047153 2.77762123 3.60062011 0 0 Z " fill="#417BA8" transform="translate(22,66)"/>
<path d="M0 0 C0.33 0 0.66 0 1 0 C1.06058594 0.68707031 1.12117188 1.37414063 1.18359375 2.08203125 C1.26738281 2.98308594 1.35117187 3.88414063 1.4375 4.8125 C1.51871094 5.70582031 1.59992188 6.59914063 1.68359375 7.51953125 C1.93489767 10.12743559 1.93489767 10.12743559 3 13 C2.01 13.495 2.01 13.495 1 14 C0.67 13.34 0.34 12.68 0 12 C-2.02463255 11.34786708 -2.02463255 11.34786708 -4 11 C-4 10.34 -4 9.68 -4 9 C-3.01 9 -2.02 9 -1 9 C-0.67 6.03 -0.34 3.06 0 0 Z " fill="#D9DADB" transform="translate(300,53)"/>
<path d="M0 0 C1.74271938 2.297221 3.39911152 4.59866729 5 7 C4.625 9.6875 4.625 9.6875 4 12 C1.12253858 9.12253858 -0.33024833 6.01850999 -1 2 C-0.67 1.34 -0.34 0.68 0 0 Z " fill="#3074AC" transform="translate(122,50)"/>
<path d="M0 0 C0.99 0 1.98 0 3 0 C5.09350689 3.4019487 5.17942163 6.05272412 5 10 C4.34 9.34 3.68 8.68 3 8 C2.34 8.99 1.68 9.98 1 11 C0.67 7.37 0.34 3.74 0 0 Z " fill="#1976C4" transform="translate(272,29)"/>
<path d="M0 0 C2.97 0 5.94 0 9 0 C9.66 1.32 10.32 2.64 11 4 C10.34 4.66 9.68 5.32 9 6 C8.62875 5.54625 8.2575 5.0925 7.875 4.625 C5.45735315 2.52970606 3.04569398 1.87986715 0 1 C0 0.67 0 0.34 0 0 Z " fill="#727273" transform="translate(207,36)"/>
<path d="M0 0 C-2.33214148 1.20628008 -4.49642139 2.1654738 -7 3 C-7.66 6.63 -8.32 10.26 -9 14 C-9.33 14 -9.66 14 -10 14 C-10 10.7 -10 7.4 -10 4 C-9.34 4 -8.68 4 -8 4 C-8 3.01 -8 2.02 -8 1 C-5.29120665 -0.35439668 -2.99066732 -0.06501451 0 0 Z " fill="#DCEEF8" transform="translate(12,29)"/>
<path d="M0 0 C2.375 0.25 2.375 0.25 5 1 C6.3125 3.0625 6.3125 3.0625 7 5 C4.69 4.67 2.38 4.34 0 4 C0 2.68 0 1.36 0 0 Z " fill="#585757" transform="translate(141,63)"/>
<path d="M0 0 C3.85103301 0.53675903 5.31797587 2.11600923 7.75 5.0625 C8.36359375 5.79597656 8.9771875 6.52945313 9.609375 7.28515625 C10.06828125 7.85105469 10.5271875 8.41695312 11 9 C10.01 9.495 10.01 9.495 9 10 C8.01 9.67 7.02 9.34 6 9 C5.33333333 7.33333333 4.66666667 5.66666667 4 4 C3.01 3.67 2.02 3.34 1 3 C0.67 2.01 0.34 1.02 0 0 Z " fill="#CDE4F0" transform="translate(6,50)"/>
<path d="M0 0 C0.33 0 0.66 0 1 0 C1.04898438 0.63808594 1.09796875 1.27617188 1.1484375 1.93359375 C1.22320312 2.75988281 1.29796875 3.58617187 1.375 4.4375 C1.44460937 5.26121094 1.51421875 6.08492187 1.5859375 6.93359375 C1.72257813 7.61550781 1.85921875 8.29742187 2 9 C2.66 9.33 3.32 9.66 4 10 C3.01 11.485 3.01 11.485 2 13 C1.01 13 0.02 13 -1 13 C-0.67 8.71 -0.34 4.42 0 0 Z " fill="#6D6E72" transform="translate(182,40)"/>
<path d="M0 0 C3 0 3 0 6 1 C6 1.66 6 2.32 6 3 C6.66 3.33 7.32 3.66 8 4 C7.01 4.66 6.02 5.32 5 6 C1.8125 5.125 1.8125 5.125 -1 4 C-0.67 2.68 -0.34 1.36 0 0 Z " fill="#656566" transform="translate(152,46)"/>
<path d="M0 0 C0.33 0.99 0.66 1.98 1 3 C1.99 3 2.98 3 4 3 C4 5.64 4 8.28 4 11 C3.01 11.495 3.01 11.495 2 12 C0.00214565 7.8794254 -0.17835515 4.54805635 0 0 Z " fill="#666D74" transform="translate(134,50)"/>
<path d="M0 0 C0.99 0.66 1.98 1.32 3 2 C2.67 3.32 2.34 4.64 2 6 C-0.31 6.33 -2.62 6.66 -5 7 C-5 5 -5 5 -2.5 2.375 C-1.675 1.59125 -0.85 0.8075 0 0 Z " fill="#686867" transform="translate(349,49)"/>
<path d="M0 0 C0.33 0.66 0.66 1.32 1 2 C3.64 1.67 6.28 1.34 9 1 C6.52044403 3.2888209 5.37404996 3.98473265 1.9375 4.125 C0.968125 4.08375 -0.00125 4.0425 -1 4 C-1.99 4.33 -2.98 4.66 -4 5 C-4 4.34 -4 3.68 -4 3 C-2 1.375 -2 1.375 0 0 Z " fill="#3F78AA" transform="translate(268,43)"/>
<path d="M0 0 C2.05078125 0.03255208 4.1015625 0.06510417 6.15234375 0.09765625 C3.29927578 2.4223783 0.61159538 3.84848205 -2.84765625 5.09765625 C-2.84765625 0.15051037 -2.84765625 0.15051037 0 0 Z " fill="#5C5C5C" transform="translate(182.84765625,26.90234375)"/>
<path d="M0 0 C0.66 0.33 1.32 0.66 2 1 C2 3.64 2 6.28 2 9 C0 8 0 8 -2 5 C-1.48275862 1.48275862 -1.48275862 1.48275862 0 0 Z " fill="#5E5E60" transform="translate(159,39)"/>
<path d="M0 0 C2 3.875 2 3.875 2 5 C-0.64 5.66 -3.28 6.32 -6 7 C-6.33 5.35 -6.66 3.7 -7 2 C-4.69 2.33 -2.38 2.66 0 3 C0 2.01 0 1.02 0 0 Z " fill="#7E7E7F" transform="translate(320,34)"/>
<path d="M0 0 C0.66 0.33 1.32 0.66 2 1 C2.33 0.67 2.66 0.34 3 0 C3.66 0 4.32 0 5 0 C4 3 4 3 1.125 4.6875 C-2 6 -2 6 -5 6 C-5 5.34 -5 4.68 -5 4 C-4.01 4 -3.02 4 -2 4 C-1.34 2.68 -0.68 1.36 0 0 Z " fill="#707174" transform="translate(184,32)"/>
<path d="M0 0 C0.33 0 0.66 0 1 0 C1 2.64 1 5.28 1 8 C0.67 8 0.34 8 0 8 C-0.33 10.31 -0.66 12.62 -1 15 C-1.33 15 -1.66 15 -2 15 C-2 11.04 -2 7.08 -2 3 C-1.34 3 -0.68 3 0 3 C0 2.01 0 1.02 0 0 Z " fill="#7A7A7D" transform="translate(288,42)"/>
<path d="M0 0 C2.475 0.495 2.475 0.495 5 1 C4.125 5.75 4.125 5.75 3 8 C2.34 8 1.68 8 1 8 C1.33 6.02 1.66 4.04 2 2 C1.34 2 0.68 2 0 2 C0 1.34 0 0.68 0 0 Z " fill="#36709A" transform="translate(48,30)"/>
<path d="M0 0 C-0.33 0.99 -0.66 1.98 -1 3 C-1.99 3.33 -2.98 3.66 -4 4 C-4.66 3.34 -5.32 2.68 -6 2 C-7.31747324 1.30251417 -8.64914193 0.63040043 -10 0 C-6.7169902 -1.6415049 -3.57454967 -0.51888624 0 0 Z " fill="#4E7B9B" transform="translate(272,25)"/>
<path d="M0 0 C1.32 0 2.64 0 4 0 C4 0.66 4 1.32 4 2 C8.29 2 12.58 2 17 2 C17 2.33 17 2.66 17 3 C14.54159395 3.02691685 12.08348118 3.04679802 9.625 3.0625 C8.92632812 3.07087891 8.22765625 3.07925781 7.5078125 3.08789062 C2.2265625 3.11328125 2.2265625 3.11328125 0 2 C0 1.34 0 0.68 0 0 Z " fill="#DCEBF4" transform="translate(240,66)"/>
<path d="M0 0 C1.65 1.65 3.3 3.3 5 5 C4.67 5.66 4.34 6.32 4 7 C3.01 7 2.02 7 1 7 C-0.0625 4.625 -0.0625 4.625 -1 2 C-0.67 1.34 -0.34 0.68 0 0 Z " fill="#666668" transform="translate(63,62)"/>
<path d="M0 0 C1.2065625 0.0309375 1.2065625 0.0309375 2.4375 0.0625 C2.7675 1.3825 3.0975 2.7025 3.4375 4.0625 C1.4575 4.3925 -0.5225 4.7225 -2.5625 5.0625 C-3.125 3.125 -3.125 3.125 -3.5625 1.0625 C-2.5625 0.0625 -2.5625 0.0625 0 0 Z " fill="#5F5F61" transform="translate(154.5625,56.9375)"/>
<path d="M0 0 C0.33 0 0.66 0 1 0 C1.49230769 7.38461538 1.49230769 7.38461538 -1 10.5 C-1.66 10.995 -2.32 11.49 -3 12 C-2.69230293 10.18667846 -2.37870936 8.37435655 -2.0625 6.5625 C-1.80146484 5.04849609 -1.80146484 5.04849609 -1.53515625 3.50390625 C-1 1 -1 1 0 0 Z " fill="#40739E" transform="translate(280,32)"/>
<path d="M0 0 C1.32 0.66 2.64 1.32 4 2 C4 2.99 4 3.98 4 5 C2.68 5.33 1.36 5.66 0 6 C-1.125 2.25 -1.125 2.25 0 0 Z " fill="#525254" transform="translate(167,63)"/>
<path d="M0 0 C0.66 0.66 1.32 1.32 2 2 C0.70647196 5.88058411 -1.3276621 7.9165332 -4 11 C-4.33 10.01 -4.66 9.02 -5 8 C-3.71937515 6.2925002 -2.38232443 4.62626404 -1 3 C-0.67 2.01 -0.34 1.02 0 0 Z " fill="#676869" transform="translate(319,56)"/>
<path d="M0 0 C2.97 0.33 5.94 0.66 9 1 C8 5 8 5 6 8 C6 6.02 6 4.04 6 2 C3.03 1.505 3.03 1.505 0 1 C0 0.67 0 0.34 0 0 Z " fill="#757576" transform="translate(147,36)"/>
<path d="M0 0 C0.33 0.66 0.66 1.32 1 2 C0.3125 4.0625 0.3125 4.0625 -1 6 C-3.125 6.75 -3.125 6.75 -5 7 C-5 6.34 -5 5.68 -5 5 C-6.32 4.34 -7.64 3.68 -9 3 C-7.88625 2.87625 -6.7725 2.7525 -5.625 2.625 C-1.96896323 2.3534187 -1.96896323 2.3534187 0 0 Z " fill="#E6E6E7" transform="translate(297,29)"/>
<path d="M0 0 C1.45823212 -0.0270043 2.91660675 -0.04639787 4.375 -0.0625 C5.18710937 -0.07410156 5.99921875 -0.08570312 6.8359375 -0.09765625 C9 0 9 0 11 1 C10.67 2.32 10.34 3.64 10 5 C9.278125 4.525625 8.55625 4.05125 7.8125 3.5625 C5.10524774 2.05847097 3.03805725 1.43400818 0 1 C0 0.67 0 0.34 0 0 Z " fill="#D7EBF6" transform="translate(267,24)"/>
<path d="M0 0 C1.32 0.33 2.64 0.66 4 1 C3.25 2.9375 3.25 2.9375 2 5 C-0.125 5.75 -0.125 5.75 -2 6 C-1.34 4.02 -0.68 2.04 0 0 Z " fill="#F3F4F4" transform="translate(344,49)"/>
<path d="M0 0 C3.125 -0.1875 3.125 -0.1875 6 0 C5.34 0.66 4.68 1.32 4 2 C3.34 2 2.68 2 2 2 C1.01 3.485 1.01 3.485 0 5 C-0.66 5 -1.32 5 -2 5 C-2.33 5.99 -2.66 6.98 -3 8 C-2.45276317 4.62537285 -1.9451 2.91765 0 0 Z " fill="#D5EBF6" transform="translate(260,26)"/>
<path d="M0 0 C1.32 0 2.64 0 4 0 C4 0.66 4 1.32 4 2 C4.99 1.67 5.98 1.34 7 1 C7 1.99 7 2.98 7 4 C4.03 3.67 1.06 3.34 -2 3 C-1.34 2.67 -0.68 2.34 0 2 C0 1.34 0 0.68 0 0 Z " fill="#515255" transform="translate(287,27)"/>
<path d="M0 0 C0.33 0 0.66 0 1 0 C1.33 3.3 1.66 6.6 2 10 C1.01 10 0.02 10 -1 10 C-0.67 6.7 -0.34 3.4 0 0 Z " fill="#C5DDED" transform="translate(264,58)"/>
<path d="M0 0 C2.9375 0.8125 2.9375 0.8125 6 2 C6.33 2.99 6.66 3.98 7 5 C4.03 4.505 4.03 4.505 1 4 C0.67 2.68 0.34 1.36 0 0 Z " fill="#2E77A4" transform="translate(24,56)"/>
<path d="M0 0 C2 1 2 1 3 2 C3 2.66 3 3.32 3 4 C0.69 4.33 -1.62 4.66 -4 5 C-3.6875 3.0625 -3.6875 3.0625 -3 1 C-2.01 0.67 -1.02 0.34 0 0 Z " fill="#555759" transform="translate(339,41)"/>
<path d="M0 0 C2.31 0 4.62 0 7 0 C5.07423885 2.43929746 3.19909405 4.80090595 1 7 C0.67 4.69 0.34 2.38 0 0 Z " fill="#626262" transform="translate(144,37)"/>
<path d="M0 0 C5.28089024 -0.30466674 6.577168 -0.317124 11 3 C7.7 3 4.4 3 1 3 C0.67 2.01 0.34 1.02 0 0 Z " fill="#7A7A7A" transform="translate(346,36)"/>
<path d="M0 0 C2.475 0.495 2.475 0.495 5 1 C5 2.32 5 3.64 5 5 C3.35 5 1.7 5 0 5 C0 3.35 0 1.7 0 0 Z " fill="#FBF5F1" transform="translate(259,33)"/>
<path d="M0 0 C0.99 0 1.98 0 3 0 C2.88637738 1.4800841 2.75877092 2.95910074 2.625 4.4375 C2.52058594 5.67306641 2.52058594 5.67306641 2.4140625 6.93359375 C2.27742187 7.61550781 2.14078125 8.29742187 2 9 C1.01 9.495 1.01 9.495 0 10 C-1.125 2.25 -1.125 2.25 0 0 Z " fill="#0E70BE" transform="translate(251,26)"/>
<path d="M0 0 C0.33 0 0.66 0 1 0 C1.125 2.875 1.125 2.875 1 6 C-1 8 -1 8 -4 9 C-2.94124926 5.59687262 -1.99097846 2.98646769 0 0 Z " fill="#676869" transform="translate(15,12)"/>
<path d="M0 0 C1.32 0 2.64 0 4 0 C4 0.66 4 1.32 4 2 C4.66 2.66 5.32 3.32 6 4 C3.69 4.33 1.38 4.66 -1 5 C-0.34 4.67 0.32 4.34 1 4 C0.67 2.68 0.34 1.36 0 0 Z " fill="#E9F0F2" transform="translate(281,65)"/>
<path d="M0 0 C1.6875 1.5625 1.6875 1.5625 3 3 C-2.53846154 3.36923077 -2.53846154 3.36923077 -4.875 1.5 C-5.24625 1.005 -5.6175 0.51 -6 0 C-3 -1 -3 -1 0 0 Z " fill="#6B6B6B" transform="translate(309,66)"/>
<path d="M0 0 C2.64 0.33 5.28 0.66 8 1 C8 1.66 8 2.32 8 3 C6.35 3.66 4.7 4.32 3 5 C2.01 3.35 1.02 1.7 0 0 Z " fill="#5D5E61" transform="translate(47,63)"/>
<path d="M0 0 C0.33 0.66 0.66 1.32 1 2 C-0.32 2.33 -1.64 2.66 -3 3 C-2.34 5.31 -1.68 7.62 -1 10 C-1.66 10.66 -2.32 11.32 -3 12 C-4.60725635 8.78548731 -4.05748185 5.56387464 -4 2 C-2.68 1.34 -1.36 0.68 0 0 Z " fill="#286FAA" transform="translate(267,46)"/>
<path d="M0 0 C0.33 0 0.66 0 1 0 C1 1.65 1 3.3 1 5 C2.65 5 4.3 5 6 5 C6 5.33 6 5.66 6 6 C4.35 6 2.7 6 1 6 C1 7.65 1 9.3 1 11 C-0.98362069 8.08291076 -0.9876191 6.87619096 -0.625 3.25 C-0.41875 2.1775 -0.2125 1.105 0 0 Z " fill="#5281A6" transform="translate(106,43)"/>
<path d="M0 0 C-0.33 1.32 -0.66 2.64 -1 4 C-2.65 3.67 -4.3 3.34 -6 3 C-3.375 0 -3.375 0 0 0 Z " fill="#535353" transform="translate(314,64)"/>
<path d="M0 0 C0.93423645 3.01031744 1.04449911 3.86650268 0 7 C-0.66 7 -1.32 7 -2 7 C-2.33 7.99 -2.66 8.98 -3 10 C-3.75 8.375 -3.75 8.375 -4 6 C-2.0625 2.75 -2.0625 2.75 0 0 Z " fill="#E6E6E6" transform="translate(319,60)"/>
<path d="M0 0 C0.4125 0.61875 0.825 1.2375 1.25 1.875 C3.05573879 4.06768281 4.4090534 4.92788417 7 6 C4.69 6 2.38 6 0 6 C-1.125 2.25 -1.125 2.25 0 0 Z " fill="#2170BA" transform="translate(98,60)"/>
<path d="M0 0 C0.33 0 0.66 0 1 0 C0.67 3.3 0.34 6.6 0 10 C-0.66 9.34 -1.32 8.68 -2 8 C-1.42307692 1.42307692 -1.42307692 1.42307692 0 0 Z " fill="#E3F7FD" transform="translate(244,56)"/>
<path d="M0 0 C2.97 0 5.94 0 9 0 C8.67 1.98 8.34 3.96 8 6 C7.4121875 5.0409375 7.4121875 5.0409375 6.8125 4.0625 C4.61527704 1.56221181 3.24208567 1.35049575 0 1 C0 0.67 0 0.34 0 0 Z " fill="#3D6D94" transform="translate(255,47)"/>
<path d="M0 0 C1.32 0.66 2.64 1.32 4 2 C3.67 3.32 3.34 4.64 3 6 C0.525 5.01 0.525 5.01 -2 4 C-1.34 2.68 -0.68 1.36 0 0 Z " fill="#F5F5F6" transform="translate(211,43)"/>
<path d="M0 0 C0.33 0 0.66 0 1 0 C1.1875 2.375 1.1875 2.375 1 5 C0.01 5.66 -0.98 6.32 -2 7 C-2.99 6.67 -3.98 6.34 -5 6 C-3.35830472 3.97945196 -1.69088222 1.97956942 0 0 Z " fill="#DAEFF8" transform="translate(132,39)"/>
<path d="M0 0 C1.00709885 2.0141977 1.47128176 3.81903726 2 6 C2.33 6.99 2.66 7.98 3 9 C2.01 9.33 1.02 9.66 0 10 C-1 9 -1 9 -1.1328125 7.1875 C-1.13023437 6.465625 -1.12765625 5.74375 -1.125 5 C-1.12757813 4.278125 -1.13015625 3.55625 -1.1328125 2.8125 C-1 1 -1 1 0 0 Z " fill="#D6E7F0" transform="translate(282,31)"/>
<path d="M0 0 C0.33 0 0.66 0 1 0 C1 1.98 1 3.96 1 6 C0.01 6.33 -0.98 6.66 -2 7 C-2.66 6.67 -3.32 6.34 -4 6 C-2.88596087 3.77192174 -1.55437434 1.94296793 0 0 Z " fill="#696B70" transform="translate(239,60)"/>
<path d="M0 0 C3.375 -0.125 3.375 -0.125 7 0 C7.66 0.66 8.32 1.32 9 2 C5.62182575 2.84454356 3.32534757 3.10844919 0 2 C0 1.34 0 0.68 0 0 Z " fill="#767778" transform="translate(205,47)"/>
<path d="M0 0 C1.32 0 2.64 0 4 0 C3.67 1.98 3.34 3.96 3 6 C2.01 5.67 1.02 5.34 0 5 C0 3.35 0 1.7 0 0 Z " fill="#565657" transform="translate(206,37)"/>
</svg>
