<?xml version="1.0" encoding="UTF-8"?>
<svg version="1.1" xmlns="http://www.w3.org/2000/svg" width="50" height="40">
<path d="M0 0 C16.5 0 33 0 50 0 C50 13.2 50 26.4 50 40 C33.5 40 17 40 0 40 C0 26.8 0 13.6 0 0 Z " fill="#D2D4D5" transform="translate(0,0)"/>
<path d="M0 0 C6.6 0 13.2 0 20 0 C20 13.2 20 26.4 20 40 C17.69 40 15.38 40 13 40 C13 39.01 13 38.02 13 37 C12.41734375 36.7525 11.8346875 36.505 11.234375 36.25 C8.66885764 34.81474554 7.16275202 33.22336987 5.25 31 C4.63640625 30.29875 4.0228125 29.5975 3.390625 28.875 C2 27 2 27 2 25 C2.94875 24.38125 3.8975 23.7625 4.875 23.125 C8.4659735 20.74275404 8.4659735 20.74275404 10 17 C10.58910131 12.4555042 10.400172 10.59454125 7.8125 6.75 C5.30061904 4.29393862 3.06426688 2.66345917 0 1 C0 0.67 0 0.34 0 0 Z " fill="#D6D6D7" transform="translate(30,0)"/>
<path d="M0 0 C0.89912109 -0.02900391 1.79824219 -0.05800781 2.72460938 -0.08789062 C9.86807879 -0.1560235 13.51028889 1.58403129 18.6875 6.625 C20.83679397 10.17960156 20.88744993 12.21598173 20.3125 16.3125 C17.9426413 20.96444487 16.14531382 22.60538666 11.3125 24.3125 C12.76648729 26.12848825 14.22582325 27.94019519 15.6875 29.75 C16.49960937 30.75933594 17.31171875 31.76867187 18.1484375 32.80859375 C20.06284341 35.34778755 20.06284341 35.34778755 22.3125 36.3125 C22.3125 36.9725 22.3125 37.6325 22.3125 38.3125 C18.70274577 38.94277455 16.77630685 39.25717459 13.3125 38.3125 C9.76567722 35.0438594 7.11402332 31.22099228 4.3125 27.3125 C3.14208249 25.92293024 1.95737149 24.54508437 0.75 23.1875 C-1.6875 20.3125 -1.6875 20.3125 -1.6875 19.3125 C-0.92824219 19.27511719 -0.16898438 19.23773437 0.61328125 19.19921875 C1.60714844 19.13347656 2.60101563 19.06773438 3.625 19 C4.61113281 18.94199219 5.59726562 18.88398438 6.61328125 18.82421875 C9.58506359 18.26082731 10.56224129 17.73593514 12.3125 15.3125 C12.81264953 12.76991537 12.81264953 12.76991537 12.3125 10.3125 C9.07625324 8.15500216 7.96855934 8.02889512 4.20703125 7.8984375 C3.22412109 7.85976562 2.24121094 7.82109375 1.22851562 7.78125 C-0.30772461 7.73484375 -0.30772461 7.73484375 -1.875 7.6875 C-2.91076172 7.64882812 -3.94652344 7.61015625 -5.01367188 7.5703125 C-7.57143622 7.47601704 -10.12919287 7.39041798 -12.6875 7.3125 C-10.07193126 -0.88294872 -8.13615251 0.08564371 0 0 Z " fill="#616265" transform="translate(20.6875,0.6875)"/>
<path d="M0 0 C0.78552246 0.01047363 1.57104492 0.02094727 2.38037109 0.03173828 C3.23115234 0.03818359 4.08193359 0.04462891 4.95849609 0.05126953 C6.29267578 0.07640625 6.29267578 0.07640625 7.65380859 0.10205078 C8.99958984 0.11558594 8.99958984 0.11558594 10.37255859 0.12939453 C12.59157445 0.15300108 14.81005937 0.18592768 17.02880859 0.22705078 C17.59130859 2.16455078 17.59130859 2.16455078 18.02880859 4.22705078 C17.02880859 5.22705078 17.02880859 5.22705078 13.43115234 5.32470703 C11.94283992 5.31803298 10.45454427 5.30607261 8.96630859 5.28955078 C8.20769531 5.28503906 7.44908203 5.28052734 6.66748047 5.27587891 C4.78788988 5.26405758 2.90833961 5.24612156 1.02880859 5.22705078 C1.40650391 5.65373047 1.78419922 6.08041016 2.17333984 6.52001953 C4.13456898 8.74764513 6.08310669 10.98584126 8.02880859 13.22705078 C8.49448242 13.76249512 8.96015625 14.29793945 9.43994141 14.84960938 C10.95430185 16.59569944 12.46099324 18.34816016 13.96630859 20.10205078 C14.71134644 20.95899536 14.71134644 20.95899536 15.47143555 21.83325195 C19.02880859 25.99854232 19.02880859 25.99854232 19.02880859 28.22705078 C16.43896484 28.67236328 16.43896484 28.67236328 13.02880859 28.22705078 C10.46197349 26.16897851 8.50729249 23.66950756 6.46630859 21.10205078 C5.91523438 20.43689453 5.36416016 19.77173828 4.79638672 19.08642578 C3.70941816 17.7712325 2.63161985 16.44839943 1.5637207 15.11767578 C0.12244737 13.34239017 -1.3711392 11.62671352 -2.87744141 9.90673828 C-4.97119141 7.22705078 -4.97119141 7.22705078 -4.90869141 4.47705078 C-3.78391832 1.77759537 -3.02564752 0.34850783 0 0 Z " fill="#277CBA" transform="translate(8.97119140625,10.77294921875)"/>
</svg>
